<svg width="38" height="37" viewBox="0 0 38 37" fill="none" xmlns="http://www.w3.org/2000/svg">
<path d="M19.0466 36.8311C29.1505 36.8311 37.3413 28.9296 37.3413 19.1826C37.3413 9.43567 29.1505 1.53418 19.0466 1.53418C8.94275 1.53418 0.751953 9.43567 0.751953 19.1826C0.751953 28.9296 8.94275 36.8311 19.0466 36.8311Z" fill="#8AD5EC"/>
<path d="M37.3414 22.4492H21.5082C20.8732 22.4492 20.3535 22.929 20.3535 23.5154C20.3535 24.1017 20.8731 24.5815 21.5082 24.5815H29.7244C30.5561 24.6998 31.1757 25.1185 31.1757 25.6138C31.1757 26.1091 30.5561 26.5279 29.7244 26.6461H25.0219C24.3869 26.6461 23.8672 27.1259 23.8672 27.7123C23.8672 28.2986 24.3868 28.7784 25.0219 28.7784C25.0219 28.7784 27.9213 28.7103 28.8839 28.7784C29.7228 28.8377 30.3352 29.3154 30.3352 29.8107C30.3352 30.2357 29.8983 30.6891 29.2242 30.7753C29.1092 30.79 28.7599 30.7753 28.7599 30.7753C28.716 30.7753 28.6731 30.7803 28.6304 30.7825C28.5394 30.7872 28.2659 30.7825 28.2659 30.7825C27.633 30.7825 27.1152 31.2606 27.1152 31.845C27.1152 32.4294 27.6331 32.9076 28.2659 32.9076H28.76H31.4285C34.5815 30.2394 36.743 26.5751 37.3414 22.4492Z" fill="#E0F8FC"/>
<path d="M2.05859 14.6065H9.23705H9.58316C10.0266 14.6065 10.3894 14.2478 10.3894 13.8096C10.3894 13.3713 10.0266 13.0127 9.58316 13.0127C9.58316 13.0127 9.39154 13.0162 9.32772 13.0127C9.29778 13.0111 9.2677 13.0073 9.23705 13.0073C9.23705 13.0073 8.99233 13.0184 8.91174 13.0073C8.43956 12.9427 8.13346 12.6026 8.13346 12.2839C8.13346 11.9124 8.56239 11.5542 9.15013 11.5096C9.82457 11.4586 11.8557 11.5096 11.8557 11.5096C12.3006 11.5096 12.6646 11.1498 12.6646 10.71C12.6646 10.2702 12.3006 9.91042 11.8557 9.91042H8.56131C7.97876 9.82179 7.54465 9.50769 7.54465 9.1362C7.54465 8.76472 7.97876 8.45069 8.56131 8.36192H14.3173C14.7623 8.36192 15.1262 8.0021 15.1262 7.56231C15.1262 7.12251 14.7623 6.7627 14.3173 6.7627H6.93051C4.59281 8.87642 2.87637 11.5764 2.05859 14.6065Z" fill="#E0F8FC"/>
<path d="M11.4403 23.8914L12.5547 24.1025L14.8011 12.86L13.6867 12.6489L11.4403 23.8914Z" fill="#ABBAC3"/>
<path d="M28.3195 20.0797L27.5039 19.3105L19.3213 27.5389L20.1369 28.3081L28.3195 20.0797Z" fill="#ABBAC3"/>
<path d="M37.1494 11.2197L37.145 11.2174C36.9811 11.1307 36.7762 11.1786 36.6717 11.3302C35.7855 12.6165 34.0365 13.0606 32.6147 12.3093C31.3564 11.6444 30.7494 10.2518 31.0423 8.94378C31.1559 8.43704 30.9029 7.91896 30.4384 7.67347C29.9738 7.42798 29.3953 7.50674 29.0289 7.87987C28.0829 8.84287 26.5682 9.11422 25.3099 8.44932C24.0516 7.78441 23.4446 6.39183 23.7375 5.08374C23.851 4.57699 23.5981 4.05899 23.1335 3.81343C22.669 3.56794 22.0904 3.64669 21.724 4.01976C20.778 4.98275 19.2633 5.2541 18.005 4.5892C16.5834 3.83798 15.9931 2.15777 16.593 0.720144C16.6637 0.550721 16.5911 0.35616 16.4271 0.269559C16.2235 0.161963 15.9708 0.26491 15.904 0.482573L12.5137 19.1237L23.657 25.0651L37.258 11.7667C37.4054 11.5914 37.3529 11.3273 37.1494 11.2197Z" fill="#FEBF3F"/>
<path d="M10.6285 23.7578C10.6044 23.7978 10.5795 23.8371 10.5564 23.878C9.11373 26.429 10.1225 29.6073 12.8094 30.9769C15.4964 32.3466 18.8443 31.3888 20.2869 28.8379C20.31 28.7971 20.3307 28.7557 20.3525 28.7145L10.6285 23.7578Z" fill="#D3EEF4"/>
<path d="M12.1194 30.0324C14.7114 30.7926 17.6395 29.8595 18.9781 27.7274C19.0019 27.6895 19.0232 27.651 19.0458 27.6127L10.6512 23.7578C10.6264 23.795 10.6007 23.8315 10.5769 23.8694C9.23832 26.0015 9.94661 28.6046 12.1194 30.0324Z" fill="white"/>
<path d="M19.6646 28.9329L11.4509 24.6174C11.2246 24.4985 11.1388 24.2199 11.2604 23.9984C11.3819 23.7769 11.6665 23.6929 11.8929 23.8119L20.1065 28.1274C20.3329 28.2464 20.4187 28.5249 20.2971 28.7464C20.1755 28.968 19.8909 29.0519 19.6646 28.9329Z" fill="#F47851"/>
<path d="M18.989 27.4673C19.1136 27.2717 19.0257 27.0259 18.7937 26.9208L11.91 23.8055C11.678 23.7005 11.3863 23.7747 11.2617 23.9702C11.1371 24.1658 11.2251 24.4116 11.457 24.5167L18.3407 27.6319C18.5727 27.737 18.8645 27.6629 18.989 27.4673Z" fill="#F6895C"/>
<path d="M20.8731 28.9191L11.486 23.5247C11.2273 23.376 11.1293 23.0279 11.2682 22.7509C11.4071 22.474 11.7324 22.3691 11.9911 22.5178L21.3782 27.9122C21.6369 28.0608 21.7349 28.409 21.596 28.6859C21.457 28.9628 21.1317 29.0678 20.8731 28.9191Z" fill="#F97E5D"/>
<path d="M20.2841 27.3875C20.4343 27.1188 20.3283 26.7808 20.0485 26.6365L12.0555 22.5158C11.7756 22.3715 11.4236 22.4734 11.2734 22.742C11.1231 23.0107 11.2292 23.3487 11.509 23.493L19.502 27.6138C19.7819 27.7581 20.1339 27.6562 20.2841 27.3875Z" fill="#FC926D"/>
<path d="M16.7288 21.1433C19.6762 20.0981 22.3631 17.7785 24.0243 14.4891C24.9817 12.5933 25.4878 10.5931 25.5813 8.64605C25.2094 8.60802 24.8386 8.49586 24.4888 8.30186C23.3113 7.64888 22.7432 6.28127 23.0173 4.99664C23.1236 4.49898 22.8868 3.99026 22.4521 3.7491C22.0174 3.50802 21.476 3.58536 21.133 3.95173C20.2478 4.89746 18.8302 5.16395 17.6527 4.51097C16.3223 3.77329 15.7698 2.12314 16.3313 0.711293C16.3974 0.544908 16.3295 0.353836 16.176 0.268788C15.9855 0.163121 15.749 0.264222 15.6865 0.477983L12.5137 18.7848L16.7288 21.1433Z" fill="#FFCA3E"/>
<path d="M23.2902 24.9982L11.5563 19.6037C11.2329 19.455 11.1104 19.1069 11.284 18.83C11.4577 18.5532 11.8643 18.4482 12.1876 18.5969L23.9215 23.9913C24.2448 24.14 24.3674 24.4882 24.1937 24.765C24.0201 25.0419 23.6135 25.1469 23.2902 24.9982Z" fill="#F9AA2B"/>
<path d="M21.5811 23.4666C21.7529 23.1979 21.6316 22.8599 21.3118 22.7157L12.1769 18.5949C11.8571 18.4506 11.4548 18.5525 11.2832 18.8212C11.1114 19.0899 11.2326 19.4278 11.5525 19.5721L20.6873 23.6929C21.0071 23.8372 21.4092 23.7353 21.5811 23.4666Z" fill="#FCB330"/>
</svg>
