<svg width="37" height="37" viewBox="0 0 37 37" fill="none" xmlns="http://www.w3.org/2000/svg">
<path d="M36.64 18.5286C36.64 28.6367 28.4493 36.8307 18.3454 36.8307C8.24142 36.8307 0.0507812 28.6367 0.0507812 18.5286C0.0507812 8.42054 8.24142 0.226562 18.3454 0.226562C28.4493 0.226562 36.64 8.42054 36.64 18.5286Z" fill="#9E69E2"/>
<path d="M36.64 18.4812C36.64 20.3485 36.3619 22.1505 35.8447 23.8479C33.557 31.3632 26.5871 36.831 18.3454 36.831C10.8733 36.831 4.44661 32.3368 1.6065 25.8963C0.606017 23.6292 0.0507812 21.1204 0.0507812 18.4812C0.0507812 15.1683 0.926206 12.0609 2.45764 9.37793C5.61068 14.9023 11.5449 18.6245 18.3454 18.6245C25.1458 18.6245 31.0809 14.9023 34.2331 9.37793C35.7645 12.0609 36.64 15.1683 36.64 18.4812Z" fill="#8E4FD2"/>
<path d="M2.66406 27.6797C3.18299 28.5804 3.78294 29.4335 4.45653 30.2299C7.85735 34.2515 13.1076 36.8307 18.9985 36.8307C24.8895 36.8307 30.1397 34.2515 33.5405 30.2299C34.2141 29.4335 34.814 28.5804 35.333 27.6797H2.66406Z" fill="#7038BA"/>
<path d="M28.7986 15.9143C28.7986 16.1172 28.7915 16.3183 28.7772 16.5176C28.6723 18.0293 28.1739 19.4408 27.3769 20.6631C27.1523 21.0085 26.9032 21.3385 26.6336 21.6513C24.9633 23.5863 22.4672 24.8732 19.6451 25.045C19.4309 25.0581 19.2149 25.0647 18.9975 25.0647C18.7801 25.0647 18.5647 25.0581 18.3513 25.045C15.5284 24.874 13.0323 23.5869 11.3629 21.6513C11.0924 21.3385 10.8433 21.0088 10.619 20.6631C9.82201 19.4408 9.32324 18.0293 9.2184 16.5176C9.20412 16.3183 9.19727 16.1172 9.19727 15.9143C9.19727 15.7115 9.20412 15.5096 9.2184 15.3099C9.3241 13.7987 9.82201 12.3872 10.6196 11.1643C10.8441 10.8194 11.0924 10.4898 11.3629 10.1761C13.0323 8.2411 15.5284 6.9542 18.3513 6.7827C18.5647 6.76936 18.7801 6.7627 18.9975 6.7627C19.2149 6.7627 19.4309 6.76936 19.6451 6.7827C19.9368 6.80004 20.2253 6.82964 20.5092 6.87152C20.5772 6.88058 20.6444 6.89125 20.7118 6.90219C20.8895 6.93126 21.0654 6.96513 21.2397 7.00301C21.2991 7.01634 21.3585 7.02968 21.4182 7.04408C21.5571 7.07689 21.6956 7.11289 21.8321 7.15157C21.885 7.16597 21.9381 7.18171 21.9907 7.19744C23.6464 7.69273 25.111 8.58783 26.2534 9.76112C26.3056 9.81553 26.3573 9.86994 26.4085 9.92488C26.4085 9.92541 26.4093 9.92541 26.4093 9.92541C26.4602 9.98116 26.5107 10.0366 26.5604 10.0929C26.585 10.1206 26.609 10.1484 26.6336 10.1761C26.6344 10.1775 26.635 10.178 26.6356 10.1785C26.6847 10.2359 26.7333 10.2932 26.7807 10.3514C26.8524 10.4388 26.9221 10.5277 26.9909 10.617C27.0821 10.7365 27.17 10.8581 27.2546 10.9819C27.2837 11.0248 27.3129 11.0675 27.3414 11.111C27.3537 11.1286 27.3652 11.1467 27.3769 11.1643C27.3926 11.1883 27.408 11.2126 27.4229 11.2366C27.4383 11.2609 27.454 11.2849 27.4689 11.3091C27.4991 11.3574 27.5291 11.4057 27.5588 11.4553C27.5968 11.5198 27.6351 11.5844 27.672 11.6497C27.7088 11.7148 27.7451 11.7807 27.7799 11.8471C27.8156 11.9135 27.8496 11.9799 27.8833 12.0471C27.9339 12.148 27.9825 12.2493 28.0285 12.352C28.445 13.2711 28.7049 14.2665 28.7775 15.3096C28.7915 15.5096 28.7986 15.7115 28.7986 15.9143Z" fill="#FFD112"/>
<path d="M28.7983 15.9143C28.7983 16.1172 28.791 16.3183 28.7764 16.5176C28.6694 18.0293 28.1606 19.4408 27.3471 20.6631C27.1179 21.0085 26.8637 21.3385 26.5884 21.6513C24.8836 23.5863 22.3358 24.8732 19.4554 25.045C19.2367 25.0581 19.0163 25.0647 18.7944 25.0647C18.5693 24.9415 18.3495 24.8119 18.1349 24.6753C15.9682 23.3007 14.3365 21.272 13.5814 18.9015C13.3382 18.1387 13.1857 17.3409 13.1361 16.5178C13.123 16.3178 13.1172 16.1167 13.1172 15.9145C13.1172 15.7115 13.123 15.5099 13.1361 15.3099C13.1857 14.4868 13.3382 13.6888 13.5814 12.9268C14.3371 10.5562 15.9694 8.52702 18.1349 7.15237C18.3495 7.01581 18.5693 6.88592 18.7944 6.7635V6.7627C19.0163 6.7627 19.2367 6.76936 19.4554 6.7827C19.7531 6.8003 20.0476 6.82991 20.3374 6.87152C20.4068 6.88058 20.4753 6.89152 20.5441 6.90219C20.7255 6.93126 20.9051 6.96513 21.083 7.00301C21.1436 7.01634 21.2043 7.02968 21.2652 7.04408C21.4069 7.07689 21.5483 7.11316 21.6877 7.15157C21.7416 7.16624 21.7959 7.18197 21.8495 7.19744C23.5395 7.69273 25.0344 8.58783 26.2004 9.76138C26.2537 9.81579 26.3065 9.86994 26.3587 9.92488C26.3587 9.92568 26.3596 9.92568 26.3596 9.92568C26.4115 9.98116 26.4631 10.0366 26.5138 10.0929C26.5389 10.1206 26.5634 10.1484 26.5884 10.1761C26.5893 10.1775 26.5899 10.178 26.5905 10.1785C26.6406 10.2359 26.6902 10.2935 26.7386 10.3514C26.8118 10.4391 26.8829 10.5277 26.9532 10.617C27.0462 10.7368 27.136 10.8581 27.2223 10.9819C27.2521 11.0248 27.2818 11.0678 27.311 11.1112C27.3235 11.1286 27.3352 11.1467 27.3471 11.1643C27.3631 11.1883 27.3789 11.2126 27.3941 11.2366C27.4098 11.2609 27.4258 11.2851 27.441 11.3091C27.4719 11.3574 27.5025 11.4057 27.5328 11.4553C27.5716 11.5198 27.6107 11.5844 27.6483 11.6497C27.6859 11.7148 27.7229 11.7807 27.7585 11.8471C27.795 11.9135 27.8297 11.9799 27.8641 12.0471C27.9157 12.148 27.9652 12.2493 28.0122 12.352C28.4373 13.2714 28.7026 14.2665 28.7767 15.3096C28.791 15.5096 28.7983 15.7115 28.7983 15.9143Z" fill="#FF9F00"/>
<path d="M28.7998 15.9143C28.7998 16.1172 28.7921 16.3183 28.7769 16.5176C28.6651 18.0293 28.1334 19.4408 27.2833 20.6631C27.0438 21.0085 26.7781 21.3385 26.4905 21.6513C24.7089 23.5863 22.0465 24.8732 19.0364 25.045C18.8079 25.0581 18.5776 25.0647 18.3457 25.0647V6.7627C18.5776 6.7627 18.8079 6.76936 19.0364 6.7827C19.3475 6.8003 19.6553 6.82991 19.9581 6.87152C20.0307 6.88058 20.1023 6.89152 20.1742 6.90219C20.3637 6.93126 20.5514 6.96513 20.7372 7.00301C20.8006 7.01634 20.864 7.02968 20.9277 7.04408C21.0758 7.07689 21.2235 7.11316 21.3692 7.15157C21.4256 7.16624 21.4822 7.18197 21.5383 7.19744C23.3043 7.69273 24.8665 8.58783 26.0849 9.76138C26.1407 9.81579 26.1958 9.86994 26.2504 9.92488C26.2504 9.92568 26.2513 9.92568 26.2513 9.92568C26.3055 9.98116 26.3595 10.0366 26.4125 10.0929C26.4387 10.1206 26.4643 10.1484 26.4905 10.1761C26.4914 10.1775 26.492 10.178 26.4926 10.1785C26.545 10.2359 26.5968 10.2935 26.6474 10.3514C26.7239 10.4391 26.7982 10.5277 26.8717 10.617C26.9688 10.7368 27.0627 10.8581 27.1529 10.9819C27.184 11.0248 27.215 11.0678 27.2455 11.1112C27.2586 11.1286 27.2708 11.1467 27.2827 11.1643C27.2991 11.1883 27.3159 11.2126 27.3323 11.2366C27.3488 11.2609 27.3656 11.2851 27.3814 11.3091C27.4137 11.3574 27.4457 11.4057 27.4774 11.4553C27.5179 11.5198 27.5587 11.5844 27.598 11.6497C27.6373 11.7148 27.676 11.7807 27.7132 11.8471C27.7513 11.9135 27.7876 11.9799 27.8235 12.0471C27.8768 12.148 27.9283 12.2493 27.9783 12.352C28.4225 13.2714 28.6998 14.2665 28.7772 15.3096C28.7921 15.5096 28.7998 15.7115 28.7998 15.9143Z" fill="#ED771B"/>
<path d="M28.7986 15.9143C28.7986 15.7115 28.7915 15.5096 28.7772 15.3099H24.7094C24.9034 13.588 25.9163 12.0909 27.3763 11.1643H27.3769C27.3652 11.1467 27.3535 11.1286 27.3412 11.1112C27.3129 11.0678 27.2838 11.0248 27.2546 10.9819C27.1698 10.8581 27.0818 10.7368 26.9907 10.6173C26.9221 10.5279 26.8521 10.4391 26.7804 10.3514C26.7333 10.2935 26.6847 10.2361 26.6356 10.1788C26.6347 10.178 26.6342 10.1775 26.6336 10.1764C24.8391 11.3209 23.6076 13.1791 23.4105 15.3099H19.6452V6.7827C19.431 6.76936 19.215 6.7627 18.9977 6.7627C18.7803 6.7627 18.5649 6.76936 18.3515 6.7827V15.3099H14.5862C14.508 14.4631 14.2666 13.66 13.8901 12.9268C13.3216 11.8148 12.4446 10.8661 11.3628 10.1764C11.0926 10.4898 10.8441 10.8194 10.6198 11.1643C12.0804 12.0903 13.0934 13.588 13.2873 15.3099H9.21869C9.20441 15.5099 9.19727 15.7115 9.19727 15.9145C9.19727 16.1175 9.20441 16.3183 9.21869 16.5178H13.2873C13.0934 18.2403 12.0799 19.7374 10.6193 20.6631C10.8435 21.0088 11.0926 21.3385 11.3631 21.6513C12.4438 20.9616 13.321 20.0129 13.8904 18.9015C14.266 18.1683 14.508 17.3644 14.5862 16.5178H18.3515V25.045C18.5649 25.0581 18.7803 25.0647 18.9977 25.0647C19.215 25.0647 19.431 25.0581 19.6452 25.045V16.5178H23.4105C23.6076 18.6484 24.8394 20.5068 26.6336 21.6513C26.9033 21.3385 27.1524 21.0088 27.3769 20.6631C25.9163 19.7374 24.9034 18.2397 24.7094 16.5178H28.7772C28.7915 16.3183 28.7986 16.1172 28.7986 15.9143Z" fill="#A63914"/>
<path d="M7.89062 21.1436C8.00217 21.4589 8.11095 21.7751 8.21528 22.0925C8.33182 22.4427 8.4442 22.7943 8.55215 23.1472C9.74616 27.0405 10.4587 31.0674 10.6391 35.192C12.9791 36.2437 15.5902 36.831 18.3451 36.831C21.0999 36.831 23.7111 36.2437 26.0511 35.192C26.2309 31.0674 26.9432 27.0405 28.138 23.1472C28.246 22.7943 28.3575 22.4427 28.4741 22.0925C28.5792 21.7751 28.6872 21.4589 28.7987 21.1436H7.89062ZM17.2951 34.8173H12.7233C12.6531 33.4085 12.5224 32.0036 12.332 30.6044H17.2951V34.8173ZM17.2951 28.5904H12.0165C11.6919 26.7653 11.267 24.9517 10.7401 23.1573H17.2951V28.5904ZM23.9669 34.8173H19.3951V30.6044H24.3582C24.1678 32.0036 24.0366 33.4085 23.9669 34.8173ZM24.6737 28.5904H19.3951V23.1573H25.9495C25.4223 24.9517 24.9983 26.7653 24.6737 28.5904Z" fill="white"/>
<path d="M18.3457 21.1436V36.831C21.1007 36.831 23.7119 36.2437 26.052 35.192C26.2318 31.0674 26.9441 27.0405 28.139 23.1472C28.247 22.7943 28.3585 22.4427 28.4751 22.0925C28.5803 21.7751 28.6882 21.4589 28.7998 21.1436H18.3457ZM23.9677 34.8173H19.3957V30.6044H24.359C24.1686 32.0036 24.0374 33.4085 23.9677 34.8173ZM24.6745 28.5904H19.3957V23.1573H25.9504C25.4232 24.9517 24.9992 26.7653 24.6745 28.5904Z" fill="#D0F6FF"/>
<path d="M32.7194 21.7971C32.7194 21.9776 32.5967 22.1412 32.3976 22.2593C32.1994 22.3778 31.9248 22.4508 31.6222 22.4508H5.06786C4.46183 22.4508 3.9707 22.1584 3.9707 21.7971C3.9707 21.6168 4.09335 21.4532 4.2924 21.3351C4.49063 21.2165 4.76443 21.1436 5.06786 21.1436H31.6222C32.2282 21.1436 32.7194 21.436 32.7194 21.7971Z" fill="white"/>
</svg>
