<svg width="38" height="37" viewBox="0 0 38 37" fill="none" xmlns="http://www.w3.org/2000/svg">
<path d="M18.7479 36.8309C28.8518 36.8309 37.0426 28.6368 37.0426 18.5287C37.0426 8.42073 28.8518 0.226562 18.7479 0.226562C8.64395 0.226562 0.453125 8.42073 0.453125 18.5287C0.453125 28.6368 8.64395 36.8309 18.7479 36.8309Z" fill="#B9EAFF"/>
<path d="M37.042 19.0036C37.042 16.3099 36.4232 13.7562 35.3176 11.4669L30.4555 6.7627L6.98633 30.776L12.0312 35.657C14.0762 36.4144 16.2959 36.8306 18.6163 36.8306C28.7924 36.8306 37.042 28.8491 37.042 19.0036Z" fill="#35CCFF"/>
<path d="M21.8417 14.3657L21.6027 14.1266C21.2809 13.8047 21.2809 13.2828 21.6027 12.9609L28.8631 5.69751C29.1849 5.37557 29.7066 5.37557 30.0284 5.69751L30.2673 5.93658C30.5891 6.25852 30.5891 6.78037 30.2673 7.10231L23.0069 14.3657C22.6853 14.6876 22.1635 14.6876 21.8417 14.3657Z" fill="#FF6838"/>
<path d="M30.2572 6.86026L30.1435 6.7627L21.3613 14.2932L21.4751 14.3908C21.8105 14.6784 22.3542 14.6784 22.6897 14.3908L30.2572 7.90166C30.5925 7.6141 30.5925 7.14788 30.2572 6.86026Z" fill="#AE4E32"/>
<path d="M7.33527 31.2512L4.74678 28.8234C4.24847 28.356 4.24847 27.5984 4.74678 27.131L20.5145 12.3427C21.0128 11.8753 21.8206 11.8753 22.319 12.3427L24.9076 14.7705C25.4059 15.2379 25.4059 15.9956 24.9076 16.4629L9.13989 31.2512C8.64158 31.7185 7.83359 31.7185 7.33527 31.2512Z" fill="#FFCF35"/>
<path d="M23.7044 13.2998L6.98633 30.0248L8.20733 31.2463C8.68142 31.7206 9.45 31.7206 9.9241 31.2463L24.9255 16.2389C25.3996 15.7646 25.3996 14.9957 24.9255 14.5214L23.7044 13.2998Z" fill="#FFB344"/>
<path d="M24.9423 14.9018L22.3735 12.332C21.9207 11.8789 21.1866 11.8789 20.7338 12.332L18.748 14.3185L22.9564 18.5287L24.9421 16.5421C25.3951 16.0892 25.3951 15.3547 24.9423 14.9018Z" fill="#F1333F"/>
<path d="M20.0547 16.2941L22.5314 18.529L24.88 16.4097C25.4157 15.9264 25.4157 15.1429 24.88 14.6596L23.3731 13.2998L20.0547 16.2941Z" fill="#AE283F"/>
<path d="M18.7483 28.9873C20.1917 28.9873 21.3618 28.1094 21.3618 27.0264C21.3618 25.9434 20.1917 25.0654 18.7483 25.0654C17.3049 25.0654 16.1348 25.9434 16.1348 27.0264C16.1348 28.1094 17.3049 28.9873 18.7483 28.9873Z" fill="#F1333F"/>
<path d="M21.3616 27.0264C21.3616 25.9434 20.1915 25.0654 18.748 25.0654V28.9873C20.1915 28.9873 21.3616 28.1094 21.3616 27.0264Z" fill="#AE283F"/>
</svg>
