<svg width="38" height="37" viewBox="0 0 38 37" fill="none" xmlns="http://www.w3.org/2000/svg">
<path d="M20.2485 36.8307C29.6343 36.8307 37.243 28.6366 37.243 18.5286C37.243 8.42067 29.6343 0.226562 20.2485 0.226562C10.8626 0.226562 3.25391 8.42067 3.25391 18.5286C3.25391 28.6366 10.8626 36.8307 20.2485 36.8307Z" fill="#518066"/>
<path d="M26.7845 27.68C28.2284 27.68 29.399 27.0947 29.399 26.3727C29.399 25.6507 28.2284 25.0654 26.7845 25.0654C25.3405 25.0654 24.1699 25.6507 24.1699 26.3727C24.1699 27.0947 25.3405 27.68 26.7845 27.68Z" fill="#367862"/>
<path d="M24.8222 25.0654C25.9052 25.0654 26.7832 24.1875 26.7832 23.1045C26.7832 22.0215 25.9052 21.1436 24.8222 21.1436C23.7393 21.1436 22.8613 22.0215 22.8613 23.1045C22.8613 24.1875 23.7393 25.0654 24.8222 25.0654Z" fill="#F9D363"/>
<path d="M11.5748 2.84082C10.4577 3.5458 9.42129 4.38562 8.48242 5.33882L35.9352 11.9918C35.4471 10.6795 34.8266 9.44128 34.0913 8.29771L11.5748 2.84082Z" fill="white"/>
<path d="M6.70731 20.5238C8.76588 24.4545 13.9168 25.5786 18.2123 23.0344C22.5077 20.4903 24.3211 15.2414 22.2625 11.3106C20.204 7.37987 15.053 6.25579 10.7576 8.79992C6.46211 11.3441 4.64875 16.593 6.70731 20.5238Z" fill="#921D0F"/>
<path d="M12.4041 24.5081L6.67789 13.2998C5.71559 15.1525 5.39518 17.2524 5.85828 19.1842L1.44379 21.8641C0.687496 22.3231 0.415789 23.3635 0.836993 24.188C1.2582 25.0123 2.21269 25.3083 2.96891 24.8493L7.38347 22.1694C8.64608 23.6155 10.4527 24.4244 12.4041 24.5081Z" fill="#EA7053"/>
<g opacity="0.3">
<path opacity="0.3" d="M1.78868 24.8897C1.35012 24.0586 1.63302 23.0095 2.42048 22.5468L7.01693 19.8449C7.00856 19.8108 7.0022 19.7762 6.99423 19.7421C6.9766 19.6662 6.95922 19.5904 6.94401 19.5142C6.93508 19.4693 6.92759 19.4243 6.91946 19.3792C6.90473 19.297 6.89008 19.2145 6.87809 19.1317C6.8727 19.0949 6.86876 19.0577 6.86393 19.0207C6.8521 18.9293 6.84067 18.838 6.83214 18.7462C6.82996 18.7227 6.82884 18.6989 6.82682 18.6752C6.55632 15.4335 8.35329 11.9625 11.5985 10.0551C14.507 8.34526 17.8152 8.34 20.2478 9.76115C17.7822 7.70932 13.9604 7.4509 10.6549 9.39399C7.40969 11.3016 5.61272 14.7726 5.88323 18.0143C5.88516 18.0378 5.88629 18.0615 5.88854 18.0853C5.89707 18.177 5.9085 18.2684 5.92033 18.3598C5.92516 18.3967 5.92918 18.4338 5.9345 18.4707C5.94649 18.5535 5.96114 18.6359 5.97595 18.7183C5.98399 18.7632 5.99156 18.8082 6.00041 18.8531C6.01562 18.9293 6.03301 19.0052 6.05064 19.081C6.05868 19.1152 6.06488 19.1497 6.07333 19.184L1.47696 21.8858C0.689507 22.3487 0.406606 23.3976 0.845164 24.2288C1.07736 24.6689 1.4657 24.9577 1.89629 25.0651C1.85781 25.0094 1.82119 24.9515 1.78868 24.8897Z" fill="#EA7053"/>
<path opacity="0.3" d="M9.60853 23.563C9.56391 23.514 9.51868 23.4663 9.4748 23.4159C9.3852 23.3133 9.29805 23.2071 9.21103 23.1006C9.15953 23.0377 9.10767 22.9754 9.05727 22.9111C8.97763 22.8095 8.90019 22.7044 8.82301 22.5993C8.78613 22.5489 8.74742 22.5013 8.71104 22.4502L8.48242 22.6206C8.5102 22.6482 8.53847 22.6751 8.56612 22.7028C8.68461 22.821 8.80408 22.9381 8.9265 23.0499C8.93104 23.0542 8.93608 23.058 8.94063 23.0622C9.21448 23.3117 9.49852 23.5419 9.7897 23.7575C9.72935 23.693 9.66826 23.6289 9.60853 23.563Z" fill="#EA7053"/>
</g>
</svg>
