<svg width="23" height="37" viewBox="0 0 23 37" fill="none" xmlns="http://www.w3.org/2000/svg">
<path fill-rule="evenodd" clip-rule="evenodd" d="M2.80497 0H20.195C21.7378 0 23 1.30081 23 2.89069V37H15.7772V30.0309H7.2228V37H0V2.89069C0 1.30081 1.26224 0 2.80497 0ZM4.48795 6.90544H7.01243V2.64246H4.48795V6.90544ZM10.2381 6.90544H12.7626V2.64246H10.2381V6.90544ZM15.9876 6.90544H18.512V2.64246H15.9876V6.90544ZM18.512 10.2297H15.9876V14.4212H18.512V10.2297ZM12.7626 10.2297H10.2381V14.4212H12.7626V10.2297ZM7.01243 10.2297H4.48795V14.4212H7.01243V10.2297ZM18.512 17.7455H15.9876V22.0093H18.512V17.7455ZM12.7626 17.7455H10.2381V22.0093H12.7626V17.7455ZM7.01243 17.7455H4.48795V22.0093H7.01243V17.7455Z" fill="#EF9322"/>
</svg>
