<svg width="5" height="5" viewBox="0 0 14 18" fill="none" xmlns="http://www.w3.org/2000/svg">
<path fill-rule="evenodd" clip-rule="evenodd" d="M1.77069 0.332031H11.8888C12.7864 0.332031 13.5208 0.93079 13.5208 1.66261V17.363H9.31835V14.1552H4.34113V17.363H0.138672V1.66261C0.138672 0.93079 0.873082 0.332031 1.77069 0.332031ZM2.74991 3.51059H4.21873V1.54835H2.74991V3.51059ZM6.09555 3.51059H7.56437V1.54835H6.09555V3.51059ZM9.44076 3.51059H10.9096V1.54835H9.44076V3.51059ZM10.9096 5.04075H9.44076V6.97008H10.9096V5.04075ZM7.56437 5.04075H6.09555V6.97008H7.56437V5.04075ZM4.21873 5.04075H2.74991V6.97008H4.21873V5.04075ZM10.9096 8.50024H9.44076V10.4628H10.9096V8.50024ZM7.56437 8.50024H6.09555V10.4628H7.56437V8.50024ZM4.21873 8.50024H2.74991V10.4628H4.21873V8.50024Z" fill="white"/>
</svg>
