<svg width="19" height="23" viewBox="0 0 19 23" fill="none" xmlns="http://www.w3.org/2000/svg">
<path d="M3.9807 2.61884C3.19786 3.16544 0.943852 6.13055 4.90184 12.8537C9.07123 19.936 13.1888 19.6443 14.0238 19.164L11.2083 14.5201C10.5129 14.9024 9.94529 14.2737 8.90377 12.9052C8.21462 11.9997 7.46099 10.8241 6.87816 9.56417C6.46923 8.6801 6.14315 7.77699 6.87131 7.37665L3.9807 2.61884Z" fill="black"/>
<path d="M17.7477 18.4188C18.1191 18.215 18.2142 17.787 18.0223 17.4711L18.0234 17.4672C18.0234 17.4672 15.4866 13.2967 15.485 13.2941C15.284 12.9632 14.8377 12.8603 14.4878 13.0522L12.8604 13.9453L16.1202 19.3119C16.1202 19.3119 17.7451 18.4233 17.7457 18.4214L17.7477 18.4188Z" fill="black"/>
<path d="M9.99757 6.63682C10.3689 6.43304 10.464 6.00499 10.2721 5.68909L10.2733 5.68516C10.2733 5.68516 7.66334 1.39432 7.66181 1.3918C7.46078 1.06085 7.01442 0.957912 6.6646 1.14988L5.03711 2.04297L8.37008 7.52991C8.37008 7.52991 9.99498 6.64134 9.99556 6.63936L9.99757 6.63682Z" fill="black"/>
</svg>
