<svg width="24" height="24" xmlns="http://www.w3.org/2000/svg">

 <g>
  <title>background</title>
  <rect fill="none" id="canvas_background" height="402" width="582" y="-1" x="-1"/>
 </g>
 <g>
  <title>Layer 1</title>
  <circle fill="#ffffff" id="svg_1" r="2" cy="20" cx="6"/>
  <circle fill="#ffffff" id="svg_2" r="2" cy="4" cx="14"/>
  <polygon fill="#ffffff" id="svg_3" points="15.6,9.1 13.5,14.5 8.7,13.2 10.5,8.8 11.2,6.4 15.2,7.5 "/>
  <path id="svg_4" stroke-width="2" stroke-miterlimit="10" stroke="#ffffff" fill="none" d="m7.250847,11.650847l0.5,-1.1c0.5,-1.1 1.3,-2 2.3,-2.6l0,0c0.8,-0.5 1.7,-0.7 2.7,-0.5l1.7,0.4c0.7,0.1 1.3,0.4 2,0.7l4.6,2.5"/>
  <line id="svg_5" y2="21" y1="12.5" x2="10" x1="13.2" stroke-width="2" stroke-miterlimit="10" stroke-linejoin="round" stroke="#ffffff" fill="none"/>
  <line id="svg_6" y2="16.1" y1="11" x2="8.5" x1="10.8" stroke-width="2" stroke-miterlimit="10" stroke-linejoin="round" stroke="#ffffff" fill="none"/>
 </g>
</svg>