<?xml version="1.0" encoding="UTF-8"?>
<svg width="73px" height="64px" viewBox="0 0 73 64" version="1.1" xmlns="http://www.w3.org/2000/svg" xmlns:xlink="http://www.w3.org/1999/xlink">
    <!-- Generator: Sketch 50.2 (55047) - http://www.bohemiancoding.com/sketch -->
    <title>icon-data-recovery</title>
    <desc>Created with Sketch.</desc>
    <defs></defs>
    <g id="Home" stroke="none" stroke-width="1" fill="none" fill-rule="evenodd" stroke-linecap="round">
        <g id="Home---Extra-large-≥1200px" transform="translate(-871.000000, -2552.000000)" stroke="#333333" stroke-width="3">
            <g id="icon-data-recovery" transform="translate(872.000000, 2553.000000)">
                <path d="M61.7397,46.591 C56.4157,55.331 46.7967,61.167 35.8157,61.167 C19.0627,61.167 5.4817,47.586 5.4817,30.833" id="Stroke-1"></path>
                <path d="M35.8153,38.2787 C31.7033,38.2787 28.3703,34.9457 28.3703,30.8337 C28.3703,26.7217 31.7033,23.3877 35.8153,23.3877 C39.9273,23.3877 43.2603,26.7217 43.2603,30.8337 C43.2603,32.6217 42.6293,34.2637 41.5783,35.5477" id="Stroke-3"></path>
                <polyline id="Stroke-5" stroke-linejoin="round" points="0.5 35.828 5.5 30.828 10.5 35.828"></polyline>
                <path d="M7.1657,20.8429 C11.2957,8.9989 22.5627,0.4999 35.8157,0.4999 C52.5677,0.4999 66.1487,14.0809 66.1487,30.8329 C66.1487,32.6659 65.9867,34.4599 65.6747,36.2029" id="Stroke-7"></path>
                <polyline id="Stroke-9" stroke-linejoin="round" points="70.5234 31.8328 65.5234 36.8328 60.5234 31.8328"></polyline>
            </g>
        </g>
    </g>
</svg>