<?xml version="1.0" encoding="UTF-8"?>
<svg width="57px" height="64px" viewBox="0 0 57 64" version="1.1" xmlns="http://www.w3.org/2000/svg" xmlns:xlink="http://www.w3.org/1999/xlink">
    <!-- Generator: Sketch 50.2 (55047) - http://www.bohemiancoding.com/sketch -->
    <title>icon-remediation</title>
    <desc>Created with Sketch.</desc>
    <defs></defs>
    <g id="Home" stroke="none" stroke-width="1" fill="none" fill-rule="evenodd">
        <g id="Home---Extra-large-≥1200px" transform="translate(-877.000000, -3633.000000)">
            <g id="icon-remediation" transform="translate(878.000000, 3634.000000)">
                <path d="M23.534,48.2856 L23.745,48.2856 C24.697,48.2276 25.422,47.4086 25.364,46.4556 C25.305,45.5036 24.486,44.7786 23.534,44.8376 C22.582,44.8956 21.857,45.7146 21.915,46.6666 C21.969,47.5376 22.663,48.2326 23.534,48.2856" id="Fill-1" fill="#333333"></path>
                <path d="M27.229,24.6651 C25.736,20.7871 27.669,16.4341 31.547,14.9411 C35.424,13.4481 39.778,15.3811 41.271,19.2581 C42.764,23.1361 40.831,27.4901 36.953,28.9831 C35.499,29.5421 33.978,29.6211 32.566,29.2951" id="Stroke-3" stroke="#333333" stroke-width="3" stroke-linecap="round"></path>
                <path d="M6,61.4617 L41.25,61.4617" id="Stroke-5" stroke="#333333" stroke-width="3" stroke-linecap="round"></path>
                <path d="M15.125,61.17 L15.125,46.774 C15.125,42.114 18.903,38.337 23.563,38.337 C28.222,38.337 32,42.114 32,46.774 L32,60.711" id="Stroke-7" stroke="#333333" stroke-width="3" stroke-linecap="round"></path>
                <path d="M15.375,44.3367 L0.5,44.3367" id="Stroke-9" stroke="#333333" stroke-width="3" stroke-linecap="round"></path>
                <path d="M39.4123,27.7426 C42.6743,28.9516 45.0003,32.0916 45.0003,35.7746 C45.0003,40.5036 41.1663,44.3366 36.4373,44.3366 L31.8753,44.3366" id="Stroke-11" stroke="#333333" stroke-width="3" stroke-linecap="round"></path>
                <path d="M53.75,35.5242 C53.75,45.1542 45.943,52.9612 36.313,52.9612 L32.25,52.9612" id="Stroke-13" stroke="#333333" stroke-width="3" stroke-linecap="round"></path>
                <path d="M41.6384,18.915 C45.0074,19.994 47.9304,22.07 50.0604,24.796" id="Stroke-15" stroke="#333333" stroke-width="3" stroke-linecap="round"></path>
                <path d="M26.949,25.0357 L22.401,29.5837 C21.51,30.4747 20.065,30.4747 19.174,29.5837 L12.325,22.7347 C11.433,21.8437 11.433,20.3987 12.325,19.5077 L30.664,1.1687 C31.555,0.2777 33,0.2777 33.891,1.1687 L40.74,8.0177 C41.631,8.9087 41.631,10.3537 40.74,11.2447 L37.199,14.7857" id="Stroke-17" stroke="#333333" stroke-width="3" stroke-linecap="round"></path>
                <path d="M18.2753,28.6855 L14.9263,32.0345 C14.1963,32.7645 13.0123,32.7645 12.2813,32.0345 L9.8743,29.6265 C9.1433,28.8965 9.1433,27.7125 9.8743,26.9815 L13.2233,23.6335" id="Stroke-19" stroke="#333333" stroke-width="3" stroke-linecap="round"></path>
            </g>
        </g>
    </g>
</svg>