<?xml version="1.0" encoding="UTF-8"?>
<svg width="66px" height="65px" viewBox="0 0 66 65" version="1.1" xmlns="http://www.w3.org/2000/svg" xmlns:xlink="http://www.w3.org/1999/xlink">
    <!-- Generator: Sketch 50.2 (55047) - http://www.bohemiancoding.com/sketch -->
    <title>icon-cyber-deception</title>
    <desc>Created with Sketch.</desc>
    <defs></defs>
    <g id="Home" stroke="none" stroke-width="1" fill="none" fill-rule="evenodd" stroke-linecap="round" stroke-linejoin="round">
        <g id="Home---Extra-large-≥1200px" transform="translate(-1252.000000, -2552.000000)" stroke="#333333" stroke-width="3">
            <g id="icon-cyber-deception" transform="translate(1253.000000, 2553.000000)">
                <path d="M50.6973,15.9776 C58.1703,18.3866 62.9923,22.1806 62.9923,26.4536 C62.9923,33.7266 49.0033,39.6236 31.7463,39.6236 C14.4903,39.6236 0.5003,33.7256 0.5003,26.4536 C0.5003,24.3876 1.6263,22.4346 3.6343,20.6956" id="Stroke-1"></path>
                <path d="M51.6755,23.7674 C51.6825,23.5314 51.7055,23.3024 51.7055,23.0664 C51.7055,10.6044 42.7695,0.5004 31.7465,0.5004 C20.7245,0.5004 11.7895,10.6044 11.7895,23.0664 C11.7895,23.3214 11.8165,23.5674 11.8215,23.8204 C19.8485,27.3044 31.9185,30.6004 44.3305,26.8534" id="Stroke-3"></path>
                <path d="M27.6419,52.2615 C27.6419,57.0195 23.0899,61.9995 17.4729,61.9995 C11.8569,61.9995 7.3049,57.0195 7.3049,52.2615 C7.3049,47.5065 11.8569,44.7765 17.4729,44.7765 C23.0899,44.7765 27.6419,47.5065 27.6419,52.2615 Z" id="Stroke-5"></path>
                <path d="M56.1898,52.2615 C56.1898,57.0195 51.6358,61.9995 46.0188,61.9995 C40.4028,61.9995 35.8498,57.0195 35.8498,52.2615 C35.8498,47.5065 40.4038,44.7765 46.0188,44.7765 C51.6378,44.7765 56.1898,47.5065 56.1898,52.2615 Z" id="Stroke-7"></path>
                <path d="M27.6419,51.1842 L35.8499,51.1842" id="Stroke-9"></path>
                <path d="M2.569,51.1842 L6.672,51.1842" id="Stroke-11"></path>
                <path d="M56.8229,51.1842 L60.9259,51.1842" id="Stroke-13"></path>
            </g>
        </g>
    </g>
</svg>