<?xml version="1.0" encoding="UTF-8"?>
<svg width="56px" height="57px" viewBox="0 0 56 57" version="1.1" xmlns="http://www.w3.org/2000/svg" xmlns:xlink="http://www.w3.org/1999/xlink">
    <!-- Generator: Sketch 50.2 (55047) - http://www.bohemiancoding.com/sketch -->
    <title>icon-data-extortion</title>
    <desc>Created with Sketch.</desc>
    <defs></defs>
    <g id="Home" stroke="none" stroke-width="1" fill="none" fill-rule="evenodd">
        <g id="Home---Extra-large-≥1200px" transform="translate(-494.000000, -2896.000000)">
            <g id="icon-data-extortion" transform="translate(495.000000, 2897.000000)">
                <polyline id="Stroke-1" stroke="#333333" stroke-width="3" stroke-linecap="round" stroke-linejoin="round" points="0.5 7.0006 0.5 0.4996 53.5 0.4996 53.5 14.1666 0.5 14.1666 0.5 28.4166 53.5 28.4166 53.5 42.2496 0.5 42.2496 0.5 35.7496"></polyline>
                <path d="M9.75,7.5417 C9.75,8.7157 8.799,9.6667 7.625,9.6667 C6.451,9.6667 5.5,8.7157 5.5,7.5417 C5.5,6.3677 6.451,5.4167 7.625,5.4167 C8.799,5.4167 9.75,6.3677 9.75,7.5417" id="Fill-3" fill="#333333"></path>
                <path d="M9.75,21.4583 C9.75,22.6323 8.799,23.5833 7.625,23.5833 C6.451,23.5833 5.5,22.6323 5.5,21.4583 C5.5,20.2843 6.451,19.3333 7.625,19.3333 C8.799,19.3333 9.75,20.2843 9.75,21.4583" id="Fill-5" fill="#333333"></path>
                <path d="M9.75,35.4619 C9.75,36.6359 8.799,37.5869 7.625,37.5869 C6.451,37.5869 5.5,36.6359 5.5,35.4619 C5.5,34.2879 6.451,33.3369 7.625,33.3369 C8.799,33.3369 9.75,34.2879 9.75,35.4619" id="Fill-7" fill="#333333"></path>
                <path d="M27.0833,42.75 L27.0833,50.083" id="Stroke-9" stroke="#333333" stroke-width="3" stroke-linecap="round" stroke-linejoin="round"></path>
                <path d="M17.5,53.2566 L0.5,53.2566" id="Stroke-11" stroke="#333333" stroke-width="3" stroke-linecap="round" stroke-linejoin="round"></path>
                <path d="M53.5,53.2566 L37,53.2566" id="Stroke-13" stroke="#333333" stroke-width="3" stroke-linecap="round" stroke-linejoin="round"></path>
                <path d="M17.6644,53.6364 L17.6644,53.3634 C17.6644,51.6974 19.0284,50.3334 20.6944,50.3334 L33.7644,50.3334 C35.4314,50.3334 36.7944,51.6974 36.7944,53.3634 L36.7944,53.6364" id="Stroke-15" stroke="#333333" stroke-width="3" stroke-linecap="round" stroke-linejoin="round"></path>
            </g>
        </g>
    </g>
</svg>