<?xml version="1.0" encoding="UTF-8"?>
<svg width="66px" height="63px" viewBox="0 0 66 63" version="1.1" xmlns="http://www.w3.org/2000/svg" xmlns:xlink="http://www.w3.org/1999/xlink">
    <!-- Generator: Sketch 50.2 (55047) - http://www.bohemiancoding.com/sketch -->
    <title>icon-information-security</title>
    <desc>Created with Sketch.</desc>
    <defs>
        <polygon id="path-1" points="0 0.9982 65.3339 0.9982 65.3339 64 0 64"></polygon>
    </defs>
    <g id="Home" stroke="none" stroke-width="1" fill="none" fill-rule="evenodd">
        <g id="Home---Extra-large-≥1200px" transform="translate(-872.000000, -2888.000000)">
            <g id="icon-information-security" transform="translate(872.000000, 2887.000000)">
                <g id="Group-3" transform="translate(0.000000, 0.002200)">
                    <mask id="mask-2" fill="white">
                        <use xlink:href="#path-1"></use>
                    </mask>
                    <g id="Clip-2"></g>
                    <path d="M3.1234,43.6162 C3.1234,42.6322 3.9434,41.6482 5.0914,41.6482 C6.2394,41.6482 7.0594,42.4682 7.0594,43.6162 L7.0594,58.7522 C7.0594,59.7362 6.2394,60.7202 5.0914,60.7202 C3.9434,60.7202 3.1234,59.9002 3.1234,58.7522 L3.1234,43.6162 Z M48.7104,16.9042 L54.7774,11.9842 L54.7774,21.0032 C54.7774,22.1512 53.7934,23.1352 52.6454,23.1352 L48.7104,23.1352 L48.7104,16.9042 Z M0.0074,43.6162 L0.0074,58.7522 C0.0074,61.7042 2.3034,64.0002 5.2554,64.0002 C8.2064,64.0002 10.5024,61.7042 10.5024,58.7522 L10.5024,52.3242 L13.6184,52.3242 C17.7174,52.3242 20.9974,49.0442 20.9974,44.9452 L20.9974,31.1702 L47.0704,31.1702 C47.8904,31.1702 48.7104,30.5142 48.7104,29.5302 L48.7104,26.4152 L52.6454,26.4152 C55.5974,26.4152 58.0574,23.9552 58.0574,21.0032 L58.0574,9.3612 L64.7804,3.9492 C65.2724,3.6212 65.4364,2.8012 65.2724,2.1452 C65.1084,1.4902 64.4524,0.9982 63.7964,0.9982 L28.3764,0.9982 C27.5564,0.9982 26.7364,1.6532 26.7364,2.6372 C26.7364,3.6212 27.5564,4.2772 28.3764,4.2772 L59.2054,4.2772 L55.5974,7.2292 C55.4334,7.2292 55.4334,7.3932 55.2694,7.3932 L46.0864,14.7722 C45.5944,15.1002 45.4304,15.5922 45.4304,16.0842 L45.4304,27.8912 L15.9144,27.8912 C9.3544,27.8912 4.1074,22.6432 4.1074,16.0842 C4.1074,9.5252 9.3544,4.2772 15.9144,4.2772 C16.7334,4.2772 17.5534,3.6212 17.5534,2.6372 C17.5534,1.6532 16.7334,0.9982 15.9144,0.9982 C7.5514,0.9982 0.8274,7.7212 0.8274,16.0842 C0.8274,24.4472 7.5514,31.1702 15.9144,31.1702 L17.5534,31.1702 L17.5534,44.9452 C17.5534,47.2402 15.7504,49.0442 13.4544,49.0442 L10.3384,49.0442 L10.3384,43.6162 C10.3384,40.8282 8.0424,38.3692 5.0914,38.3692 C2.3034,38.3692 -0.1566,40.6642 0.0074,43.6162 Z" id="Fill-1" fill="#333333" mask="url(#mask-2)"></path>
                </g>
                <path d="M35.4277,19.5298 C35.4277,20.3498 36.2477,21.1698 37.0677,21.1698 C37.8877,21.1698 38.7077,20.3498 38.7077,19.5298 C38.7077,18.7098 38.0517,17.8898 37.0677,17.8898 C36.0837,17.8898 35.4277,18.7098 35.4277,19.5298 M32.1477,19.5298 C32.1477,16.9058 34.2797,14.6108 37.0677,14.6108 C39.6917,14.6108 41.9867,16.7418 41.9867,19.5298 C41.9867,22.1538 39.8557,24.4488 37.0677,24.4488 C34.2797,24.4488 32.1477,22.3178 32.1477,19.5298" id="Fill-4" fill="#333333"></path>
            </g>
        </g>
    </g>
</svg>