<?xml version="1.0" encoding="UTF-8"?>
<svg width="74px" height="65px" viewBox="0 0 74 65" version="1.1" xmlns="http://www.w3.org/2000/svg" xmlns:xlink="http://www.w3.org/1999/xlink">
    <!-- Generator: Sketch 50.2 (55047) - http://www.bohemiancoding.com/sketch -->
    <title>icon-privacy-regulatory</title>
    <desc>Created with Sketch.</desc>
    <defs></defs>
    <g id="Home" stroke="none" stroke-width="1" fill="none" fill-rule="evenodd" stroke-linecap="round" stroke-linejoin="round">
        <g id="Home---Extra-large-≥1200px" transform="translate(-1253.000000, -2889.000000)" stroke="#333333" stroke-width="3">
            <g id="icon-privacy-regulatory" transform="translate(1254.000000, 2890.000000)">
                <polygon id="Stroke-1" points="66.9167 26.1667 4.3337 26.1667 4.3337 20.9167 35.5007 0.4997 66.9167 20.9167"></polygon>
                <path d="M41.1667,15.1661 C41.1667,18.2041 38.7047,20.6661 35.6667,20.6661 C32.6287,20.6661 30.1667,18.2041 30.1667,15.1661 C30.1667,12.1281 32.6287,9.6661 35.6667,9.6661 C38.7047,9.6661 41.1667,12.1281 41.1667,15.1661 Z" id="Stroke-3"></path>
                <path d="M32.0833,26.5833 L32.0833,51.0833" id="Stroke-5"></path>
                <path d="M39.7548,26.5833 L39.7548,51.0833" id="Stroke-7"></path>
                <path d="M11.0707,26.5833 L11.0707,51.0833" id="Stroke-9"></path>
                <path d="M18.7422,26.5833 L18.7422,51.0833" id="Stroke-11"></path>
                <path d="M53.0959,26.5833 L53.0959,51.0833" id="Stroke-13"></path>
                <path d="M60.7674,26.5833 L60.7674,42.7503" id="Stroke-15"></path>
                <polyline id="Stroke-17" points="14 61.75 71.5 61.75 71.5 55.75 66.5 55.75 66.5 51.75 5.5 51.75 5.5 55.75 0.5 55.75 0.5 62.25"></polyline>
            </g>
        </g>
    </g>
</svg>