<?xml version="1.0" encoding="UTF-8"?>
<svg width="70px" height="65px" viewBox="0 0 70 65" version="1.1" xmlns="http://www.w3.org/2000/svg" xmlns:xlink="http://www.w3.org/1999/xlink">
    <!-- Generator: Sketch 50.2 (55047) - http://www.bohemiancoding.com/sketch -->
    <title>icon-crisis-management</title>
    <desc>Created with Sketch.</desc>
    <defs></defs>
    <g id="Home" stroke="none" stroke-width="1" fill="none" fill-rule="evenodd">
        <g id="Home---Extra-large-≥1200px" transform="translate(-873.000000, -3264.000000)" fill="#333333">
            <g id="icon-crisis-management" transform="translate(873.000000, 3264.000000)">
                <path d="M58.3458,59.9612 C58.3458,60.6582 57.8228,61.1802 57.1268,61.1802 L12.5398,61.1802 C11.8428,61.1802 11.3208,60.6582 11.3208,59.9612 L11.3208,54.9512 C11.3208,54.2542 11.8428,53.7322 12.5398,53.7322 L57.1268,53.7322 C57.8228,53.7322 58.3458,54.2542 58.3458,54.9512 L58.3458,59.9612 Z M57.1268,50.2492 L55.7328,50.2492 L55.7328,34.8332 C55.7328,23.3382 46.3278,13.9332 34.8328,13.9332 C23.3378,13.9332 13.9328,23.3382 13.9328,34.8332 L13.9328,43.2822 C13.9328,44.3272 14.8038,45.0242 15.6748,45.0242 C16.5458,45.0242 17.4168,44.3272 17.4168,43.2822 L17.4168,34.8332 C17.4168,25.2542 25.2538,17.4162 34.8328,17.4162 C44.4128,17.4162 52.2498,25.2542 52.2498,34.8332 L52.2498,50.2492 L12.5398,50.2492 C9.9278,50.2492 7.8378,52.3392 7.8378,54.9512 L7.8378,59.9612 C7.8378,62.5742 9.9278,64.6632 12.5398,64.6632 L57.1268,64.6632 C59.7388,64.6632 61.8288,62.5742 61.8288,59.9612 L61.8288,54.9512 C61.8288,52.3392 59.7388,50.2492 57.1268,50.2492 Z" id="Fill-1"></path>
                <path d="M34.8333,9.405 C33.7883,9.405 33.0913,8.708 33.0913,7.663 L33.0913,1.742 C33.0913,0.697 33.7883,0 34.8333,0 C35.8783,0 36.5753,0.697 36.5753,1.742 L36.5753,7.663 C36.5753,8.534 35.8783,9.405 34.8333,9.405" id="Fill-3"></path>
                <path d="M7.6633,36.0525 L1.7413,36.0525 C0.6963,36.0525 0.0003,35.3555 0.0003,34.3105 C0.0003,33.2655 0.6963,32.5695 1.7413,32.5695 L7.6633,32.5695 C8.7083,32.5695 9.4053,33.2655 9.4053,34.3105 C9.4053,35.3555 8.5343,36.0525 7.6633,36.0525" id="Fill-5"></path>
                <path d="M67.925,36.0525 L62.003,36.0525 C60.958,36.0525 60.262,35.3555 60.262,34.3105 C60.262,33.2655 60.958,32.5695 62.003,32.5695 L67.925,32.5695 C68.97,32.5695 69.667,33.2655 69.667,34.3105 C69.667,35.3555 68.97,36.0525 67.925,36.0525" id="Fill-7"></path>
                <path d="M53.6433,17.2425 C53.1203,17.2425 52.7723,17.0685 52.4243,16.7205 C51.7273,16.0235 51.7273,14.9785 52.4243,14.2815 L56.6043,10.1015 C57.3013,9.4055 58.3453,9.4055 59.0423,10.1015 C59.7393,10.7985 59.7393,11.8435 59.0423,12.5405 L54.8623,16.7205 C54.5143,17.0685 54.1653,17.2425 53.6433,17.2425" id="Fill-9"></path>
                <path d="M15.675,16.72 C15.152,16.72 14.804,16.546 14.456,16.197 L10.276,12.018 C9.579,11.321 9.579,10.276 10.276,9.579 C10.973,8.882 12.017,8.882 12.714,9.579 L16.894,13.759 C17.591,14.456 17.591,15.501 16.894,16.197 C16.546,16.546 16.023,16.72 15.675,16.72" id="Fill-11"></path>
                <path d="M22.6417,36.575 C21.5967,36.575 20.8997,35.878 20.8997,34.833 C20.8997,27.17 27.1697,20.9 34.8337,20.9 C35.8787,20.9 36.5747,21.597 36.5747,22.642 C36.5747,23.687 35.8787,24.383 34.8337,24.383 C29.0857,24.383 24.3837,29.086 24.3837,34.833 C24.3837,35.878 23.6867,36.575 22.6417,36.575" id="Fill-13"></path>
            </g>
        </g>
    </g>
</svg>