<?xml version="1.0" encoding="UTF-8"?>
<svg width="63px" height="64px" viewBox="0 0 63 64" version="1.1" xmlns="http://www.w3.org/2000/svg" xmlns:xlink="http://www.w3.org/1999/xlink">
    <!-- Generator: Sketch 50.2 (55047) - http://www.bohemiancoding.com/sketch -->
    <title>icon-breach-identification</title>
    <desc>Created with Sketch.</desc>
    <defs></defs>
    <g id="Home" stroke="none" stroke-width="1" fill="none" fill-rule="evenodd">
        <g id="Home---Extra-large-≥1200px" transform="translate(-1254.000000, -3267.000000)" stroke="#333333" stroke-width="3">
            <g id="icon-breach-identification" transform="translate(1255.000000, 3268.000000)">
                <path d="M57.4778,13.811 C59.3078,17.28 60.3438,21.232 60.3438,25.427 C60.3438,39.193 49.1838,50.353 35.4178,50.353 C21.6508,50.353 10.4908,39.193 10.4908,25.427 C10.4908,11.66 21.6508,0.5 35.4178,0.5 C39.2638,0.5 42.9068,1.371 46.1598,2.927" id="Stroke-1" stroke-linecap="round"></path>
                <path d="M17.5168,43.0053 L13.9698,46.5523" id="Stroke-3"></path>
                <path d="M11.3263,44.0058 L17.4843,50.1638 C18.0263,50.7058 18.0263,51.5828 17.4843,52.1238 L10.2993,59.3088 C8.0573,61.5508 4.4233,61.5508 2.1813,59.3088 C-0.0607,57.0678 -0.0607,53.4328 2.1813,51.1908" id="Stroke-5" stroke-linecap="round"></path>
                <path d="M42.1556,24.8153 C42.1556,31.0133 39.1526,36.0383 35.4476,36.0383 C31.7426,36.0383 28.7396,31.0133 28.7396,24.8153 C28.7396,18.6173 31.7426,13.5923 35.4476,13.5923 C39.1526,13.5923 42.1556,18.6173 42.1556,24.8153 Z" id="Stroke-7" stroke-linecap="round"></path>
                <path d="M21.4502,25.2023 L28.2242,25.2023" id="Stroke-9" stroke-linecap="round"></path>
                <path d="M28.5456,21.7357 C25.3936,20.3467 23.1926,17.1937 23.1926,13.5277" id="Stroke-11" stroke-linecap="round"></path>
                <path d="M28.5456,28.6689 C25.3936,30.0579 23.1926,33.2109 23.1926,36.8769" id="Stroke-13" stroke-linecap="round"></path>
                <path d="M49.4451,25.2023 L42.6711,25.2023" id="Stroke-15" stroke-linecap="round"></path>
                <path d="M42.3497,21.7357 C45.5017,20.3467 47.7027,17.1937 47.7027,13.5277" id="Stroke-17" stroke-linecap="round"></path>
                <path d="M42.3497,28.6689 C45.5017,30.0579 47.7027,33.2109 47.7027,36.8769" id="Stroke-19" stroke-linecap="round"></path>
                <path d="M35.3186,21.5276 L35.3186,29.3126" id="Stroke-21" stroke-linecap="round"></path>
            </g>
        </g>
    </g>
</svg>