<?xml version="1.0" encoding="UTF-8"?>
<svg width="63px" height="63px" viewBox="0 0 63 63" version="1.1" xmlns="http://www.w3.org/2000/svg" xmlns:xlink="http://www.w3.org/1999/xlink">
    <!-- Generator: Sketch 50.2 (55047) - http://www.bohemiancoding.com/sketch -->
    <title>icon-legal-connect</title>
    <desc>Created with Sketch.</desc>
    <defs></defs>
    <g id="Home" stroke="none" stroke-width="1" fill="none" fill-rule="evenodd" stroke-linecap="round">
        <g id="Home---Extra-large-≥1200px" transform="translate(-495.000000, -3634.000000)" stroke="#333333" stroke-width="3">
            <g id="icon-legal-connect" transform="translate(496.000000, 3635.000000)">
                <path d="M1.5006,6 L24.1276,6" id="Stroke-1"></path>
                <path d="M37.3738,6 L58.4978,6" id="Stroke-3"></path>
                <path d="M35.9161,6.4792 C35.9161,9.7812 33.2391,12.4582 29.9371,12.4582 C26.6351,12.4582 23.9581,9.7812 23.9581,6.4792 C23.9581,3.1772 26.6351,0.5002 29.9371,0.5002 C33.2391,0.5002 35.9161,3.1772 35.9161,6.4792 Z" id="Stroke-5"></path>
                <path d="M17.5,33.9167 C17.5,38.6107 13.694,42.4167 9,42.4167 C4.306,42.4167 0.5,38.6107 0.5,33.9167 C0.5,29.2227 9,7.6667 9,7.6667 C9,7.6667 17.5,29.2227 17.5,33.9167 Z" id="Stroke-7" stroke-linejoin="round"></path>
                <path d="M59.7488,33.9167 C59.7488,38.6107 55.9428,42.4167 51.2488,42.4167 C46.5548,42.4167 42.7488,38.6107 42.7488,33.9167 C42.7488,29.2227 51.2488,7.6667 51.2488,7.6667 C51.2488,7.6667 59.7488,29.2227 59.7488,33.9167 Z" id="Stroke-9" stroke-linejoin="round"></path>
                <path d="M29.8744,46.0417 L29.8744,13.0417" id="Stroke-11"></path>
                <path d="M18.3744,52.7917 L18.3744,50.5407 C18.3744,48.8907 19.7244,47.5407 21.3744,47.5407 L37.8744,47.5407 C39.5244,47.5407 40.8744,48.8907 40.8744,50.5407 L40.8744,57.9117" id="Stroke-13"></path>
                <path d="M12.0953,59.6667 L47.3453,59.6667" id="Stroke-15"></path>
                <path d="M0.75,33.0417 L10.374,33.0417" id="Stroke-17"></path>
                <path d="M43.4167,33.0417 L52.9997,33.0417" id="Stroke-19"></path>
            </g>
        </g>
    </g>
</svg>