<?xml version="1.0" encoding="utf-8"?>
<!-- Generator: Adobe Illustrator 19.2.0, SVG Export Plug-In . SVG Version: 6.00 Build 0)  -->
<svg width="107" version="1.1" id="Layer_1" xmlns="http://www.w3.org/2000/svg" xmlns:xlink="http://www.w3.org/1999/xlink" x="0px" y="0px"
	 viewBox="0 0 98.05 13.798" style="enable-background:new 0 0 98.05 13.798;" xml:space="preserve">
<style type="text/css">
	.st0{enable-background:new    ;}
	.st1{fill:#6652CC;}
</style>
<title>brands-text-our-approach</title>
<desc>Created with Sketch.</desc>
<g id="Home">
	<g class="st0">
		<path class="st1" d="M0,5.522C0,2.305,2.353,0,5.57,0c3.233,0,5.586,2.305,5.586,5.522c0,3.217-2.353,5.522-5.586,5.522
			C2.353,11.045,0,8.739,0,5.522z M8.819,5.522c0-2.001-1.28-3.506-3.249-3.506S2.337,3.521,2.337,5.522
			c0,1.984,1.265,3.505,3.233,3.505S8.819,7.507,8.819,5.522z"/>
		<path class="st1" d="M17.923,10.853V9.876c-0.528,0.593-1.457,1.169-2.722,1.169c-1.696,0-2.497-0.929-2.497-2.434v-5.49h2.033
			v4.69c0,1.072,0.561,1.425,1.425,1.425c0.784,0,1.408-0.433,1.761-0.881V3.121h2.032v7.731H17.923z"/>
		<path class="st1" d="M21.968,10.853V3.121h2.033v1.057c0.544-0.688,1.505-1.248,2.465-1.248v1.984
			c-0.144-0.032-0.336-0.048-0.561-0.048c-0.672,0-1.568,0.384-1.904,0.88v5.106H21.968z"/>
		<path class="st1" d="M36.466,10.853v-0.801c-0.528,0.625-1.441,0.993-2.449,0.993c-1.232,0-2.689-0.833-2.689-2.562
			c0-1.809,1.457-2.497,2.689-2.497c1.024,0,1.937,0.336,2.449,0.944v-1.04c0-0.784-0.673-1.297-1.697-1.297
			c-0.832,0-1.601,0.305-2.257,0.913l-0.769-1.361c0.944-0.832,2.161-1.216,3.378-1.216c1.761,0,3.377,0.704,3.377,2.929v4.994
			H36.466z M36.466,8.996V8.035c-0.337-0.448-0.977-0.672-1.633-0.672c-0.801,0-1.457,0.416-1.457,1.168
			c0,0.721,0.656,1.137,1.457,1.137C35.489,9.668,36.129,9.444,36.466,8.996z"/>
		<path class="st1" d="M42.545,9.86v3.938h-2.033V3.121h2.033v0.977c0.592-0.752,1.44-1.168,2.385-1.168
			c1.985,0,3.426,1.473,3.426,4.049c0,2.577-1.44,4.066-3.426,4.066C44.018,11.045,43.169,10.66,42.545,9.86z M46.242,6.979
			c0-1.328-0.784-2.24-1.952-2.24c-0.656,0-1.409,0.384-1.745,0.88v2.737c0.336,0.48,1.089,0.881,1.745,0.881
			C45.458,9.236,46.242,8.323,46.242,6.979z"/>
		<path class="st1" d="M51.872,9.86v3.938H49.84V3.121h2.032v0.977c0.593-0.752,1.441-1.168,2.386-1.168
			c1.984,0,3.425,1.473,3.425,4.049c0,2.577-1.44,4.066-3.425,4.066C53.345,11.045,52.497,10.66,51.872,9.86z M55.57,6.979
			c0-1.328-0.784-2.24-1.953-2.24c-0.656,0-1.408,0.384-1.745,0.88v2.737c0.337,0.48,1.089,0.881,1.745,0.881
			C54.786,9.236,55.57,8.323,55.57,6.979z"/>
		<path class="st1" d="M59.167,10.853V3.121H61.2v1.057c0.544-0.688,1.505-1.248,2.465-1.248v1.984
			c-0.144-0.032-0.336-0.048-0.561-0.048c-0.672,0-1.568,0.384-1.904,0.88v5.106H59.167z"/>
		<path class="st1" d="M64.431,6.979c0-2.192,1.537-4.049,4.082-4.049c2.561,0,4.098,1.856,4.098,4.049
			c0,2.209-1.537,4.066-4.098,4.066C65.968,11.045,64.431,9.188,64.431,6.979z M70.497,6.979c0-1.2-0.72-2.24-1.984-2.24
			s-1.969,1.04-1.969,2.24c0,1.217,0.704,2.258,1.969,2.258S70.497,8.195,70.497,6.979z"/>
		<path class="st1" d="M78.753,10.853v-0.801c-0.528,0.625-1.44,0.993-2.449,0.993c-1.232,0-2.688-0.833-2.688-2.562
			c0-1.809,1.456-2.497,2.688-2.497c1.024,0,1.938,0.336,2.449,0.944v-1.04c0-0.784-0.672-1.297-1.696-1.297
			c-0.833,0-1.601,0.305-2.257,0.913l-0.769-1.361c0.944-0.832,2.161-1.216,3.377-1.216c1.761,0,3.378,0.704,3.378,2.929v4.994
			H78.753z M78.753,8.996V8.035c-0.336-0.448-0.977-0.672-1.633-0.672c-0.8,0-1.456,0.416-1.456,1.168
			c0,0.721,0.656,1.137,1.456,1.137C77.776,9.668,78.417,9.444,78.753,8.996z"/>
		<path class="st1" d="M82.303,6.979c0-2.368,1.713-4.049,4.098-4.049c1.585,0,2.545,0.688,3.058,1.393L88.129,5.57
			c-0.368-0.544-0.928-0.832-1.632-0.832c-1.232,0-2.098,0.896-2.098,2.24c0,1.345,0.865,2.258,2.098,2.258
			c0.704,0,1.264-0.32,1.632-0.833l1.329,1.232c-0.513,0.721-1.473,1.409-3.058,1.409C84.016,11.045,82.303,9.364,82.303,6.979z"/>
		<path class="st1" d="M96.018,10.853V6.146c0-1.072-0.561-1.408-1.441-1.408c-0.784,0-1.408,0.448-1.761,0.912v5.202h-2.032V0.176
			h2.032V4.13c0.497-0.593,1.457-1.2,2.722-1.2c1.696,0,2.513,0.928,2.513,2.433v5.49H96.018z"/>
	</g>
</g>
</svg>
