<?xml version="1.0" encoding="utf-8"?>
<!-- Generator: Adobe Illustrator 19.2.0, SVG Export Plug-In . SVG Version: 6.00 Build 0)  -->
<svg width="147" version="1.1" id="Layer_1" xmlns="http://www.w3.org/2000/svg" xmlns:xlink="http://www.w3.org/1999/xlink" x="0px" y="0px"
	 viewBox="0 0 134.911 13.99" style="enable-background:new 0 0 134.911 13.99;" xml:space="preserve">
<style type="text/css">
	.st0{enable-background:new    ;}
	.st1{fill:#6652CC;}
</style>
<title>brands-text-choose-your-cover</title>
<desc>Created with Sketch.</desc>
<g id="Home">
	<g class="st0">
		<path class="st1" d="M0,5.522C0,2.241,2.481,0,5.682,0c2.353,0,3.713,1.28,4.466,2.609l-1.953,0.96
			C7.747,2.705,6.787,2.017,5.682,2.017c-1.937,0-3.345,1.489-3.345,3.506s1.408,3.505,3.345,3.505c1.104,0,2.065-0.672,2.513-1.552
			l1.953,0.944c-0.769,1.328-2.113,2.625-4.466,2.625C2.481,11.045,0,8.804,0,5.522z"/>
		<path class="st1" d="M16.69,10.853V6.146c0-1.072-0.561-1.408-1.441-1.408c-0.784,0-1.408,0.448-1.761,0.912v5.202h-2.033V0.176
			h2.033V4.13c0.497-0.593,1.457-1.2,2.721-1.2c1.697,0,2.513,0.928,2.513,2.433v5.49H16.69z"/>
		<path class="st1" d="M20.239,6.979c0-2.192,1.537-4.049,4.082-4.049c2.561,0,4.098,1.856,4.098,4.049
			c0,2.209-1.537,4.066-4.098,4.066C21.776,11.045,20.239,9.188,20.239,6.979z M26.306,6.979c0-1.2-0.72-2.24-1.985-2.24
			s-1.969,1.04-1.969,2.24c0,1.217,0.704,2.258,1.969,2.258S26.306,8.195,26.306,6.979z"/>
		<path class="st1" d="M29.423,6.979c0-2.192,1.537-4.049,4.082-4.049c2.561,0,4.098,1.856,4.098,4.049
			c0,2.209-1.537,4.066-4.098,4.066C30.96,11.045,29.423,9.188,29.423,6.979z M35.49,6.979c0-1.2-0.72-2.24-1.985-2.24
			c-1.264,0-1.969,1.04-1.969,2.24c0,1.217,0.705,2.258,1.969,2.258C34.77,9.236,35.49,8.195,35.49,6.979z"/>
		<path class="st1" d="M38.431,9.844l0.88-1.424c0.561,0.528,1.713,1.056,2.673,1.056c0.88,0,1.296-0.352,1.296-0.832
			c0-1.28-4.594-0.24-4.594-3.281c0-1.297,1.136-2.433,3.169-2.433c1.312,0,2.353,0.448,3.121,1.056l-0.816,1.393
			c-0.464-0.496-1.345-0.896-2.289-0.896c-0.736,0-1.216,0.336-1.216,0.768c0,1.152,4.578,0.192,4.578,3.313
			c0,1.409-1.2,2.481-3.345,2.481C40.544,11.045,39.248,10.597,38.431,9.844z"/>
		<path class="st1" d="M46.239,6.979c0-2.24,1.648-4.049,4.001-4.049c2.305,0,3.874,1.729,3.874,4.258v0.447h-5.746
			c0.128,0.977,0.912,1.793,2.225,1.793c0.656,0,1.568-0.288,2.064-0.769l0.896,1.313c-0.768,0.704-1.985,1.072-3.185,1.072
			C48.016,11.045,46.239,9.46,46.239,6.979z M50.241,4.546c-1.264,0-1.809,0.944-1.905,1.713h3.81
			C52.098,5.522,51.585,4.546,50.241,4.546z"/>
		<path class="st1" d="M59.711,12.053c0.176,0.08,0.448,0.128,0.64,0.128c0.528,0,0.88-0.144,1.072-0.56l0.288-0.656l-3.137-7.844
			h2.177L62.768,8.5l2.017-5.379h2.193l-3.633,8.996c-0.576,1.456-1.601,1.841-2.929,1.873c-0.24,0-0.752-0.049-1.008-0.112
			L59.711,12.053z"/>
		<path class="st1" d="M67.391,6.979c0-2.192,1.537-4.049,4.081-4.049c2.562,0,4.098,1.856,4.098,4.049
			c0,2.209-1.536,4.066-4.098,4.066C68.927,11.045,67.391,9.188,67.391,6.979z M73.457,6.979c0-1.2-0.721-2.24-1.985-2.24
			c-1.264,0-1.968,1.04-1.968,2.24c0,1.217,0.704,2.258,1.968,2.258C72.736,9.236,73.457,8.195,73.457,6.979z"/>
		<path class="st1" d="M82.288,10.853V9.876c-0.528,0.593-1.456,1.169-2.721,1.169c-1.697,0-2.497-0.929-2.497-2.434v-5.49h2.032
			v4.69c0,1.072,0.561,1.425,1.425,1.425c0.784,0,1.409-0.433,1.761-0.881V3.121h2.033v7.731H82.288z"/>
		<path class="st1" d="M86.334,10.853V3.121h2.033v1.057c0.544-0.688,1.505-1.248,2.465-1.248v1.984
			c-0.144-0.032-0.336-0.048-0.561-0.048c-0.672,0-1.568,0.384-1.904,0.88v5.106H86.334z"/>
		<path class="st1" d="M95.694,6.979c0-2.368,1.713-4.049,4.098-4.049c1.584,0,2.545,0.688,3.057,1.393l-1.328,1.248
			c-0.368-0.544-0.929-0.832-1.633-0.832c-1.232,0-2.097,0.896-2.097,2.24c0,1.345,0.864,2.258,2.097,2.258
			c0.704,0,1.265-0.32,1.633-0.833l1.328,1.232c-0.512,0.721-1.473,1.409-3.057,1.409C97.407,11.045,95.694,9.364,95.694,6.979z"/>
		<path class="st1" d="M103.678,6.979c0-2.192,1.536-4.049,4.081-4.049c2.562,0,4.098,1.856,4.098,4.049
			c0,2.209-1.536,4.066-4.098,4.066C105.214,11.045,103.678,9.188,103.678,6.979z M109.744,6.979c0-1.2-0.721-2.24-1.985-2.24
			s-1.969,1.04-1.969,2.24c0,1.217,0.704,2.258,1.969,2.258S109.744,8.195,109.744,6.979z"/>
		<path class="st1" d="M115.358,10.853l-3.105-7.731h2.178l2.017,5.379l2.017-5.379h2.192l-3.104,7.731H115.358z"/>
		<path class="st1" d="M121.069,6.979c0-2.24,1.648-4.049,4.001-4.049c2.306,0,3.874,1.729,3.874,4.258v0.447h-5.746
			c0.128,0.977,0.912,1.793,2.225,1.793c0.656,0,1.568-0.288,2.064-0.769l0.896,1.313c-0.768,0.704-1.984,1.072-3.185,1.072
			C122.846,11.045,121.069,9.46,121.069,6.979z M125.07,4.546c-1.264,0-1.809,0.944-1.904,1.713h3.81
			C126.928,5.522,126.415,4.546,125.07,4.546z"/>
		<path class="st1" d="M130.413,10.853V3.121h2.033v1.057c0.544-0.688,1.505-1.248,2.465-1.248v1.984
			c-0.144-0.032-0.336-0.048-0.561-0.048c-0.672,0-1.568,0.384-1.904,0.88v5.106H130.413z"/>
	</g>
</g>
</svg>
