<?xml version="1.0" encoding="UTF-8"?>
<svg width="135px" height="47px" viewBox="0 0 135 47" version="1.1" xmlns="http://www.w3.org/2000/svg" xmlns:xlink="http://www.w3.org/1999/xlink">
    <!-- Generator: Sketch 50.2 (55047) - http://www.bohemiancoding.com/sketch -->
    <title>brand-cybercare-white-logo</title>
    <desc>Created with Sketch.</desc>
    <defs></defs>
    <g id="Home" stroke="none" stroke-width="1" fill="none" fill-rule="evenodd">
        <g id="Home---Extra-large-≥1200px" transform="translate(-493.000000, -1124.000000)" fill="#FFFFFF">
            <g id="brand-cybercare-white-logo" transform="translate(493.000000, 1124.000000)">
                <path d="M44.972,26.9776 C44.972,23.3256 47.493,20.7296 51.164,20.7296 C54.354,20.7296 55.781,22.4726 55.781,23.4366 C55.781,24.6236 54.243,24.9196 54.205,24.8276 C53.612,23.7896 52.481,23.1956 51.276,23.1956 C49.255,23.1956 47.79,24.7156 47.79,26.9586 C47.79,29.1836 49.274,30.7416 51.294,30.7416 C52.685,30.7416 53.816,30.0546 54.28,28.9236 C54.317,28.8316 55.91,29.1276 55.91,30.3146 C55.91,31.3336 54.427,33.2066 51.127,33.2066 C47.493,33.2066 44.972,30.6486 44.972,26.9776" id="Fill-1"></path>
                <path d="M58.9925,35.8028 L60.4935,32.3908 C60.0675,32.3358 59.8075,32.1688 59.6405,31.7978 L56.5265,24.5858 C56.4715,24.4378 57.1565,23.8258 57.9545,23.8078 C58.5655,23.8078 59.1035,24.1038 59.4185,25.1238 L61.3845,30.2958 L63.1265,25.1428 C63.4415,24.1218 63.9985,23.8078 64.5725,23.8078 C65.3135,23.8078 66.0375,24.4188 65.9815,24.5488 L61.8655,35.2458 C61.4765,36.2288 60.9575,36.5258 60.3835,36.5258 C59.6225,36.5258 58.9185,35.9318 58.9925,35.8028" id="Fill-3"></path>
                <path d="M74.3645,28.461 C74.3645,26.885 73.4195,25.81 72.0475,25.81 C70.9535,25.81 70.1565,26.385 69.7665,27.293 L69.7665,29.054 C69.8035,30.277 70.7865,31.131 72.0285,31.131 C73.4375,31.131 74.3645,30.055 74.3645,28.461 M69.7665,31.631 L69.7665,31.798 C69.7665,32.743 69.2845,33.04 68.6175,33.04 L68.3395,33.04 C67.6355,33.04 67.1525,32.762 67.1525,31.798 L67.1525,20.378 C67.1525,20.285 67.6165,20.081 68.1355,20.081 C68.9145,20.081 69.7665,20.489 69.7665,22.176 L69.7665,25.235 C70.3785,24.289 71.3985,23.715 72.6955,23.715 C75.1425,23.715 76.8855,25.55 76.8855,28.442 C76.8855,31.26 75.1615,33.207 72.6595,33.207 C71.2685,33.207 70.2305,32.521 69.7665,31.631" id="Fill-5"></path>
                <path d="M80.2464,27.627 L84.6954,27.627 C84.6404,26.366 83.8434,25.531 82.5824,25.531 C81.3584,25.531 80.4314,26.403 80.2464,27.627 M77.8924,28.517 C77.8924,25.754 79.8754,23.715 82.6194,23.715 C85.2884,23.715 87.1244,25.587 87.1244,28.238 L87.1244,28.424 C87.1054,28.887 86.9754,29.147 86.4934,29.147 L80.2464,29.147 C80.4314,30.5 81.4704,31.297 82.8784,31.297 C84.2504,31.297 85.0114,30.686 85.4364,29.963 C85.4554,29.926 86.6974,30.092 86.6974,31.131 C86.6974,32.113 85.3074,33.207 82.7854,33.207 C79.8384,33.207 77.8924,31.371 77.8924,28.517" id="Fill-7"></path>
                <path d="M91.1507,25.3643 C91.5217,24.3263 92.2627,23.7153 93.3567,23.7153 C94.4137,23.7153 95.0447,24.3073 95.0447,25.2353 C95.0447,26.2733 94.2467,26.6433 94.2097,26.6063 C93.9317,26.3473 93.5237,26.1623 93.0227,26.1623 C91.7447,26.1623 91.1877,27.2743 91.1877,29.0913 L91.1877,31.7983 C91.1877,32.7433 90.7057,33.0403 90.0387,33.0403 L89.7597,33.0403 C89.0557,33.0403 88.5737,32.7613 88.5737,31.7983 L88.5737,24.1223 C88.5737,24.0493 89.0377,23.8263 89.5557,23.8263 C90.2427,23.8263 90.9837,24.1403 91.1507,25.3643" id="Fill-9"></path>
                <path d="M95.9729,26.9776 C95.9729,23.3256 98.4939,20.7296 102.1649,20.7296 C105.3549,20.7296 106.7819,22.4726 106.7819,23.4366 C106.7819,24.6236 105.2439,24.9196 105.2059,24.8276 C104.6129,23.7896 103.4819,23.1956 102.2769,23.1956 C100.2559,23.1956 98.7909,24.7156 98.7909,26.9586 C98.7909,29.1836 100.2749,30.7416 102.2949,30.7416 C103.6859,30.7416 104.8169,30.0546 105.2809,28.9236 C105.3179,28.8316 106.9109,29.1276 106.9109,30.3146 C106.9109,31.3336 105.4279,33.2066 102.1279,33.2066 C98.4939,33.2066 95.9729,30.6486 95.9729,26.9776" id="Fill-11"></path>
                <path d="M114.1087,29.4249 L114.1087,28.9049 L113.6277,28.9239 C111.5697,28.9799 110.4937,29.3879 110.4937,30.3699 C110.4937,31.0379 111.0317,31.4639 111.9027,31.4639 C113.2007,31.4639 114.1087,30.6119 114.1087,29.4249 M107.9917,30.5559 C107.9917,28.4799 109.8447,27.5339 113.8127,27.4789 L114.1087,27.4789 C114.1087,26.3109 113.4607,25.6799 112.2547,25.6799 C110.9947,25.6799 110.3457,26.3659 110.0117,27.0709 C110.0117,27.1079 108.3247,27.1629 108.3247,25.9579 C108.3247,24.8269 109.6597,23.7149 112.4217,23.7149 C115.2767,23.7149 116.6857,25.0129 116.6857,27.4419 L116.6857,32.7989 C116.6857,32.9289 116.2047,33.0959 115.7037,33.0959 C114.8697,33.0959 114.3127,32.6509 114.1647,31.6679 C113.5157,32.6129 112.3667,33.1699 111.0317,33.1699 C109.1407,33.1699 107.9917,32.0949 107.9917,30.5559" id="Fill-13"></path>
                <path d="M121.1575,25.3643 C121.5285,24.3263 122.2695,23.7153 123.3635,23.7153 C124.4205,23.7153 125.0515,24.3073 125.0515,25.2353 C125.0515,26.2733 124.2535,26.6433 124.2165,26.6063 C123.9385,26.3473 123.5305,26.1623 123.0295,26.1623 C121.7505,26.1623 121.1945,27.2743 121.1945,29.0913 L121.1945,31.7983 C121.1945,32.7433 120.7125,33.0403 120.0455,33.0403 L119.7665,33.0403 C119.0625,33.0403 118.5805,32.7613 118.5805,31.7983 L118.5805,24.1223 C118.5805,24.0493 119.0445,23.8263 119.5625,23.8263 C120.2495,23.8263 120.9905,24.1403 121.1575,25.3643" id="Fill-15"></path>
                <path d="M128.0198,27.627 L132.4688,27.627 C132.4138,26.366 131.6168,25.531 130.3558,25.531 C129.1318,25.531 128.2048,26.403 128.0198,27.627 M125.6658,28.517 C125.6658,25.754 127.6488,23.715 130.3928,23.715 C133.0618,23.715 134.8978,25.587 134.8978,28.238 L134.8978,28.424 C134.8788,28.887 134.7488,29.147 134.2668,29.147 L128.0198,29.147 C128.2048,30.5 129.2438,31.297 130.6518,31.297 C132.0238,31.297 132.7848,30.686 133.2098,29.963 C133.2288,29.926 134.4708,30.092 134.4708,31.131 C134.4708,32.113 133.0808,33.207 130.5588,33.207 C127.6118,33.207 125.6658,31.371 125.6658,28.517" id="Fill-17"></path>
                <path d="M2.7354,18.4824 C2.5384,18.4824 2.3534,18.5594 2.2144,18.6994 C2.0754,18.8384 1.9994,19.0244 2.0004,19.2224 L2.0264,28.7414 C2.0264,37.4874 9.1394,44.6004 17.8824,44.6004 C26.6264,44.6004 33.7394,37.4874 33.7394,28.7444 L33.7514,19.2204 C33.7514,19.0224 33.6744,18.8374 33.5364,18.6984 C33.3974,18.5594 33.2124,18.4824 33.0154,18.4824 L2.7354,18.4824 Z M17.8824,46.6004 C8.0374,46.6004 0.0264,38.5894 0.0264,28.7444 L0.0004,19.2304 C-0.0036,18.4994 0.2794,17.8084 0.7974,17.2884 C1.3134,16.7684 2.0024,16.4824 2.7354,16.4824 L33.0154,16.4824 C33.7474,16.4824 34.4344,16.7674 34.9524,17.2854 C35.4684,17.8034 35.7534,18.4924 35.7514,19.2234 L35.7394,28.7454 C35.7394,38.5894 27.7284,46.6004 17.8824,46.6004 Z" id="Fill-19"></path>
                <path d="M23.2207,18.1006 C22.6697,18.1006 22.2227,17.6546 22.2207,17.1036 L22.2077,12.3856 C22.2077,9.9876 20.2627,8.0376 17.8707,8.0376 C15.4807,8.0376 13.5347,9.9836 13.5347,12.3736 L13.5297,17.0996 C13.5287,17.6516 13.0807,18.0986 12.5297,18.0986 L12.5287,18.0986 C11.9757,18.0976 11.5287,17.6496 11.5297,17.0976 L11.5347,12.3726 C11.5347,8.8806 14.3777,6.0376 17.8707,6.0376 C21.3657,6.0376 24.2077,8.8846 24.2077,12.3826 L24.2207,17.0976 C24.2227,17.6506 23.7757,18.0986 23.2237,18.1006 L23.2207,18.1006 Z" id="Fill-21"></path>
                <path d="M6.4913,18.0899 L6.4903,18.0899 C5.9373,18.0889 5.4903,17.6409 5.4913,17.0889 L5.4973,12.3689 C5.4973,5.5489 11.0483,-0.0001 17.8713,-0.0001 C24.6943,-0.0001 30.2463,5.5509 30.2463,12.3739 L30.2593,17.0799 C30.2613,17.6329 29.8133,18.0809 29.2623,18.0829 L29.2593,18.0829 C28.7083,18.0829 28.2613,17.6369 28.2593,17.0859 L28.2463,12.3769 C28.2463,6.6529 23.5923,1.9999 17.8713,1.9999 C12.1503,1.9999 7.4973,6.6519 7.4973,12.3699 L7.4913,17.0909 C7.4903,17.6429 7.0433,18.0899 6.4913,18.0899" id="Fill-23"></path>
                <path d="M18.0264,36.2432 C17.4734,36.2432 17.0264,35.7962 17.0264,35.2432 L17.0264,25.0682 C17.0264,24.5152 17.4734,24.0682 18.0264,24.0682 C18.5794,24.0682 19.0264,24.5152 19.0264,25.0682 L19.0264,35.2432 C19.0264,35.7962 18.5794,36.2432 18.0264,36.2432" id="Fill-25"></path>
                <path d="M23.1143,31.1553 L12.9393,31.1553 C12.3863,31.1553 11.9393,30.7083 11.9393,30.1553 C11.9393,29.6023 12.3863,29.1553 12.9393,29.1553 L23.1143,29.1553 C23.6673,29.1553 24.1143,29.6023 24.1143,30.1553 C24.1143,30.7083 23.6673,31.1553 23.1143,31.1553" id="Fill-27"></path>
            </g>
        </g>
    </g>
</svg>