<?xml version="1.0" encoding="utf-8"?>
<!-- Generator: Adobe Illustrator 19.2.0, SVG Export Plug-In . SVG Version: 6.00 Build 0)  -->
<svg width="125" version="1.1" id="Layer_1" xmlns="http://www.w3.org/2000/svg" xmlns:xlink="http://www.w3.org/1999/xlink" x="0px" y="0px"
	 viewBox="0 0 110.578 11.028" style="enable-background:new 0 0 110.578 11.028;" xml:space="preserve">
<style type="text/css">
	.st0{enable-background:new    ;}
	.st1{fill:#6652CC;}
</style>
<title>brands-text-whats-covered</title>
<desc>Created with Sketch.</desc>
<g id="Home">
	<g class="st0">
		<path class="st1" d="M9.204,10.836L7.331,3.505l-1.856,7.331H3.058L0,0.159h2.545l1.873,7.716l2.033-7.716h1.776l2.017,7.716
			l1.856-7.716h2.562l-3.041,10.677H9.204z"/>
		<path class="st1" d="M20.915,10.836V6.13c0-1.072-0.561-1.408-1.441-1.408c-0.784,0-1.408,0.448-1.761,0.912v5.202h-2.032V0.159
			h2.032v3.954c0.497-0.593,1.457-1.2,2.722-1.2c1.696,0,2.513,0.928,2.513,2.433v5.49H20.915z"/>
		<path class="st1" d="M29.603,10.836v-0.801c-0.528,0.625-1.441,0.993-2.449,0.993c-1.232,0-2.689-0.833-2.689-2.562
			c0-1.809,1.457-2.497,2.689-2.497c1.024,0,1.937,0.336,2.449,0.944v-1.04c0-0.784-0.673-1.297-1.697-1.297
			c-0.832,0-1.601,0.305-2.257,0.913L24.88,4.129c0.944-0.832,2.161-1.216,3.378-1.216c1.761,0,3.377,0.704,3.377,2.929v4.994
			H29.603z M29.603,8.979V8.019c-0.337-0.448-0.977-0.672-1.633-0.672c-0.801,0-1.457,0.416-1.457,1.168
			c0,0.721,0.656,1.137,1.457,1.137C28.626,9.651,29.266,9.428,29.603,8.979z"/>
		<path class="st1" d="M34.049,8.915V4.882h-1.281V3.104h1.281V0.992h2.049v2.112h1.568v1.777h-1.568v3.489
			c0,0.48,0.256,0.849,0.704,0.849c0.304,0,0.592-0.112,0.704-0.225l0.433,1.537c-0.305,0.271-0.849,0.496-1.697,0.496
			C34.816,11.028,34.049,10.292,34.049,8.915z"/>
		<path class="st1" d="M39.841,4.609L38.96,3.889c0.513-0.271,1.104-0.944,1.232-1.521C40.145,2.4,40,2.433,39.889,2.433
			c-0.608,0-1.089-0.48-1.089-1.152C38.8,0.576,39.376,0,40.049,0c0.752,0,1.44,0.592,1.44,1.632
			C41.489,2.833,40.816,3.905,39.841,4.609z"/>
		<path class="st1" d="M41.983,9.827l0.881-1.424c0.561,0.528,1.713,1.056,2.673,1.056c0.881,0,1.297-0.352,1.297-0.832
			c0-1.28-4.594-0.24-4.594-3.281c0-1.297,1.136-2.433,3.169-2.433c1.312,0,2.353,0.448,3.121,1.056l-0.816,1.393
			c-0.464-0.496-1.345-0.896-2.289-0.896c-0.736,0-1.216,0.336-1.216,0.768c0,1.152,4.577,0.192,4.577,3.313
			c0,1.409-1.2,2.481-3.345,2.481C44.097,11.028,42.8,10.58,41.983,9.827z"/>
		<path class="st1" d="M53.888,6.962c0-2.368,1.713-4.049,4.098-4.049c1.585,0,2.545,0.688,3.058,1.393l-1.329,1.248
			c-0.368-0.544-0.928-0.832-1.632-0.832c-1.232,0-2.098,0.896-2.098,2.24c0,1.345,0.865,2.258,2.098,2.258
			c0.704,0,1.264-0.32,1.632-0.833l1.329,1.232c-0.513,0.721-1.473,1.409-3.058,1.409C55.601,11.028,53.888,9.348,53.888,6.962z"/>
		<path class="st1" d="M61.871,6.962c0-2.192,1.537-4.049,4.082-4.049c2.561,0,4.098,1.856,4.098,4.049
			c0,2.209-1.537,4.066-4.098,4.066C63.408,11.028,61.871,9.171,61.871,6.962z M67.938,6.962c0-1.2-0.72-2.24-1.984-2.24
			s-1.969,1.04-1.969,2.24c0,1.217,0.704,2.258,1.969,2.258S67.938,8.179,67.938,6.962z"/>
		<path class="st1" d="M73.553,10.836l-3.105-7.731h2.177l2.017,5.379l2.017-5.379h2.193l-3.105,7.731H73.553z"/>
		<path class="st1" d="M79.263,6.962c0-2.24,1.648-4.049,4.002-4.049c2.305,0,3.873,1.729,3.873,4.258v0.447h-5.746
			c0.128,0.977,0.912,1.793,2.226,1.793c0.656,0,1.568-0.288,2.064-0.769l0.896,1.313c-0.769,0.704-1.985,1.072-3.186,1.072
			C81.04,11.028,79.263,9.443,79.263,6.962z M83.265,4.529c-1.265,0-1.809,0.944-1.905,1.713h3.81
			C85.121,5.506,84.609,4.529,83.265,4.529z"/>
		<path class="st1" d="M88.607,10.836V3.104h2.032v1.057c0.545-0.688,1.505-1.248,2.466-1.248v1.984
			c-0.145-0.032-0.337-0.048-0.561-0.048c-0.672,0-1.568,0.384-1.905,0.88v5.106H88.607z"/>
		<path class="st1" d="M93.871,6.962c0-2.24,1.648-4.049,4.001-4.049c2.306,0,3.874,1.729,3.874,4.258v0.447H96
			c0.128,0.977,0.912,1.793,2.225,1.793c0.656,0,1.568-0.288,2.064-0.769l0.896,1.313c-0.768,0.704-1.984,1.072-3.185,1.072
			C95.647,11.028,93.871,9.443,93.871,6.962z M97.872,4.529c-1.264,0-1.809,0.944-1.904,1.713h3.81
			C99.729,5.506,99.217,4.529,97.872,4.529z"/>
		<path class="st1" d="M108.529,10.836V9.844c-0.608,0.769-1.456,1.185-2.385,1.185c-1.953,0-3.426-1.473-3.426-4.05
			c0-2.529,1.457-4.065,3.426-4.065c0.912,0,1.776,0.399,2.385,1.185V0.159h2.049v10.677H108.529z M108.529,8.339V5.602
			c-0.336-0.512-1.072-0.88-1.761-0.88c-1.152,0-1.953,0.912-1.953,2.257c0,1.328,0.801,2.241,1.953,2.241
			C107.457,9.22,108.193,8.852,108.529,8.339z"/>
	</g>
</g>
</svg>
