<svg width="225" height="232" viewBox="0 0 225 232" fill="none" xmlns="http://www.w3.org/2000/svg">
<g clip-path="url(#clip0)">
<path d="M222.174 88.8583C220.415 80.1825 217.558 71.8361 213.821 64.0389C208.325 52.5078 200.961 41.965 192.058 32.9598C186.123 27.0295 179.638 21.7581 172.494 17.2555C170.845 16.2671 169.197 15.2787 167.548 14.2903C159.744 9.8975 151.391 6.38325 142.598 3.9672C139.63 3.19846 136.663 2.42972 133.585 1.88062C130.508 1.33152 127.43 0.892234 124.243 0.562773C120.286 0.233312 116.329 0.0136719 112.262 0.0136719C108.086 0.0136719 103.909 0.233312 99.8423 0.782414C96.7648 1.11187 93.6872 1.55116 90.7196 2.21008C46.5352 10.9957 11.913 45.6989 3.12011 89.7368C2.46064 92.702 2.02099 95.777 1.69126 98.8519C1.1417 103.135 0.921875 107.638 0.921875 112.25C0.921875 115.984 1.1417 119.608 1.47143 123.232C1.80117 126.417 2.24081 129.492 2.79037 132.567C3.33993 135.642 4.10931 138.607 4.87869 141.572C7.29675 150.358 10.8139 158.704 15.2104 166.501C16.1996 168.149 17.1888 169.796 18.178 171.443C22.6844 178.581 27.9601 185.061 33.8953 190.991C42.9081 199.887 53.3497 207.354 65.0003 212.736C72.804 216.469 81.1573 219.215 89.8403 221.082C97.4242 222.619 105.228 223.498 113.252 223.388C117.868 223.388 122.484 223.059 126.99 222.51C132.706 221.741 138.421 220.643 143.807 218.995C180.627 208.343 209.534 179.46 220.195 142.67C221.734 137.179 222.943 131.578 223.713 125.868C224.372 121.036 224.592 116.204 224.592 111.152C224.482 103.574 223.713 96.1064 222.174 88.8583Z" fill="url(#paint0_linear)"/>
<path d="M196.015 111.701C196.015 155.849 161.722 191.87 118.307 194.725C116.439 194.835 114.57 194.945 112.702 194.945C66.6487 194.945 29.3887 157.716 29.3887 111.701C29.3887 65.6861 66.6487 28.457 112.702 28.457C114.57 28.457 116.439 28.5669 118.307 28.6767C161.722 31.532 196.015 67.6629 196.015 111.701Z" fill="url(#paint1_linear)"/>
<path d="M192.387 111.7C192.387 113.128 192.387 114.556 192.278 115.983C190.189 156.178 158.205 188.465 118.087 191.1C117.757 191.1 117.318 191.101 116.988 191.21C115.559 191.32 114.13 191.32 112.702 191.32C104.019 191.32 95.5553 189.892 87.6417 187.367C68.9567 181.217 53.3493 168.258 43.677 151.565C37.9616 141.791 34.3346 130.59 33.3454 118.619C33.1255 116.423 33.0156 114.116 33.0156 111.81C33.0156 109.724 33.1255 107.637 33.2354 105.55C33.5652 101.267 34.2247 96.9845 35.2139 92.9211C42.2482 64.1482 64.89 41.6351 93.5769 34.6066C97.6436 33.6182 101.93 32.9593 106.217 32.6298C108.305 32.4102 110.393 32.4102 112.482 32.4102C114.24 32.4102 116.109 32.52 117.867 32.6298C118.417 32.6298 118.857 32.7396 119.406 32.7396C131.386 33.728 142.488 37.3521 152.38 43.0627C169.196 52.7269 182.056 68.3214 188.211 86.9908C190.959 94.5684 192.387 103.025 192.387 111.7Z" fill="url(#paint2_linear)"/>
<path d="M139.959 104.233C138.201 121.036 125.121 131.469 109.514 134.983L142.597 177.813H115.999L110.943 173.75L77.4197 131.359L82.4757 118.29H97.4237C108.854 118.29 117.098 114.337 119.406 104.233H77.3098L72.2539 100.17V83.8068L117.867 87.8701C114.35 80.8416 106.326 78.3158 95.8849 78.3158H77.3098L72.2539 74.2524V57.999H154.358L159.414 62.0624V78.4256H134.574L134.134 78.8649C135.343 80.0729 136.992 83.3675 138.531 87.98L154.358 83.9166L159.414 87.98V104.343H139.959V104.233Z" fill="url(#paint3_linear)"/>
<path d="M154.358 74.2524V57.999H72.2539V74.3622H90.829C98.9624 74.3622 105.667 75.8997 109.844 79.9631C111.053 81.0613 111.932 82.3791 112.701 83.9166H72.2539V100.28H114.24C111.932 110.383 103.689 114.337 92.2578 114.337H77.4197V131.469L107.975 170.016L110.943 173.75H135.783L121.824 156.069L102.37 131.359C118.966 128.284 133.145 117.631 134.904 100.17H154.358V83.8068H133.475C132.046 79.3042 130.397 75.8997 129.188 74.6917L129.628 74.2524H154.358Z" fill="url(#paint4_linear)"/>
<path d="M72.2539 83.8066H105.997L89.6199 100.06H72.2539V83.8066Z" fill="#FBEB96"/>
<path d="M77.5297 57.999L72.2539 63.1606V57.999H77.5297Z" fill="#FBEB96"/>
</g>
<defs>
<linearGradient id="paint0_linear" x1="76.0497" y1="217.298" x2="149.311" y2="6.12655" gradientUnits="userSpaceOnUse">
<stop stop-color="#EEC65F"/>
<stop offset="0.23" stop-color="#A76F2A"/>
<stop offset="0.3974" stop-color="#E2B755"/>
<stop offset="0.5143" stop-color="#F9F2B7"/>
<stop offset="0.8649" stop-color="#E2B755"/>
<stop offset="1" stop-color="#E2B755"/>
</linearGradient>
<linearGradient id="paint1_linear" x1="29.4188" y1="111.729" x2="196.052" y2="111.729" gradientUnits="userSpaceOnUse">
<stop offset="0.041828" stop-color="#A76F2A"/>
<stop offset="0.33" stop-color="#E2B755"/>
<stop offset="0.8674" stop-color="#8F5D21"/>
</linearGradient>
<linearGradient id="paint2_linear" x1="86.6121" y1="186.899" x2="138.775" y2="36.5435" gradientUnits="userSpaceOnUse">
<stop stop-color="#EEC65F"/>
<stop offset="0.23" stop-color="#A76F2A"/>
<stop offset="0.3974" stop-color="#E2B755"/>
<stop offset="0.5143" stop-color="#F9F2B7"/>
<stop offset="0.8649" stop-color="#E2B755"/>
<stop offset="1" stop-color="#E2B755"/>
</linearGradient>
<linearGradient id="paint3_linear" x1="72.2362" y1="117.859" x2="159.39" y2="117.859" gradientUnits="userSpaceOnUse">
<stop offset="0.041828" stop-color="#A76F2A"/>
<stop offset="0.33" stop-color="#E2B755"/>
<stop offset="0.8674" stop-color="#8F5D21"/>
</linearGradient>
<linearGradient id="paint4_linear" x1="86.7975" y1="165.313" x2="127.303" y2="48.5583" gradientUnits="userSpaceOnUse">
<stop stop-color="#EEC65F"/>
<stop offset="0.23" stop-color="#A76F2A"/>
<stop offset="0.3974" stop-color="#E2B755"/>
<stop offset="0.5143" stop-color="#F9F2B7"/>
<stop offset="0.8649" stop-color="#E2B755"/>
<stop offset="1" stop-color="#E2B755"/>
</linearGradient>
<clipPath id="clip0">
<rect width="223.67" height="231.611" fill="white" transform="translate(0.921875 0.0136719)"/>
</clipPath>
</defs>
</svg>
