<svg width="36" height="37" viewBox="0 0 36 37" fill="none" xmlns="http://www.w3.org/2000/svg">
<path d="M17.9908 36.8307C27.7338 36.8307 35.632 28.6366 35.632 18.5286C35.632 8.42067 27.7338 0.226562 17.9908 0.226562C8.24785 0.226562 0.349609 8.42067 0.349609 18.5286C0.349609 28.6366 8.24785 36.8307 17.9908 36.8307Z" fill="#504A7F"/>
<path d="M32.3219 23.002L35.1714 14.6553C36.7311 10.0866 34.2053 5.11503 29.5478 3.68201C26.3657 2.703 22.8896 2.32437 20.4175 3.96505C19.0117 4.89806 18.197 6.4872 18.197 8.16103C18.197 8.43716 18.0315 8.68808 17.7742 8.79558C16.973 9.13023 15.3921 10.3193 16.3087 14.3968C17.2372 18.5267 18.9734 21.863 19.7148 23.1664C19.9226 23.5319 20.3136 23.7574 20.7378 23.7574H31.2576C31.7396 23.7574 32.1679 23.4534 32.3219 23.002Z" fill="#FF7171"/>
<path d="M23.5898 23.589L22.1373 13.382C21.5221 9.05843 23.9162 4.9994 27.7921 3.09948C25.1986 2.63784 22.6164 2.71882 20.6428 3.96469C19.1648 4.89771 18.3082 6.48688 18.3082 8.16074C18.3082 8.43688 18.1343 8.6878 17.8637 8.79523C17.0213 9.12989 15.3592 10.319 16.323 14.3966C17.2991 18.5265 19.1245 21.8629 19.904 23.1664C20.1225 23.5319 20.5336 23.7574 20.9796 23.7574H23.6268C23.6109 23.7025 23.5979 23.6465 23.5898 23.589Z" fill="#FF5252"/>
<path d="M19.2979 13.2995C19.6588 13.2995 19.9513 12.9782 19.9513 12.5819V4.14844C19.1182 5.14299 18.6508 6.46922 18.6508 7.85064C18.6508 7.8826 18.6482 7.91402 18.6445 7.94512V12.5817C18.6445 12.9782 18.9371 13.2995 19.2979 13.2995Z" fill="#EA3D3D"/>
<path d="M33.0187 24.6765C33.0187 24.1692 32.5671 23.7578 32.0098 23.7578H20.9601C20.4029 23.7578 19.9512 24.1691 19.9512 24.6765V30.6829C19.9512 31.1903 20.4028 31.6015 20.9601 31.6015H30.4691C31.4296 30.774 32.2857 29.8472 33.0187 28.8396V24.6765Z" fill="#AAC5EE"/>
<path d="M30.4052 30.6829V24.6765C30.4052 24.1692 29.966 23.7578 29.424 23.7578H20.9324C20.3905 23.7578 19.9512 24.1691 19.9512 24.6765V30.6829C19.9512 31.1903 20.3904 31.6015 20.9324 31.6015H29.4241C29.966 31.6015 30.4052 31.1903 30.4052 30.6829Z" fill="#CEDDF7"/>
<path d="M23.5538 30.9049V24.4545C23.5538 24.1825 23.6752 23.9363 23.8714 23.7578H20.9639C20.4046 23.7578 19.9512 24.1691 19.9512 24.6765V30.6829C19.9512 31.1903 20.4046 31.6015 20.9639 31.6015H23.8714C23.6751 31.4232 23.5538 31.1769 23.5538 30.9049Z" fill="#AAC5EE"/>
<path d="M27.5042 25.0654H19.9512V30.2946H27.5042C27.663 30.2946 27.7917 30.1244 27.7917 29.9144V25.4456C27.7917 25.2356 27.663 25.0654 27.5042 25.0654Z" fill="#FFB229"/>
<path d="M22.5647 25.0654H19.9512V30.2946H22.5647V25.0654Z" fill="#FC9B00"/>
<path d="M27.613 25.0654H26.4844V30.2946H27.613C27.7114 30.2946 27.7911 30.1244 27.7911 29.9144V25.4456C27.7911 25.2356 27.7114 25.0654 27.613 25.0654Z" fill="#FBCC68"/>
<path d="M11.918 10.7381C11.6492 10.7695 11.3872 10.6445 11.2517 10.4237C10.4307 9.08576 8.96703 8.18712 7.32877 8.08265C6.13831 8.00677 4.97317 8.28534 3.8608 8.79538C1.65358 11.6351 0.349609 15.1356 0.349609 18.9232C0.349609 20.7777 0.663214 22.5631 1.24122 24.2362L6.66926 28.7314C7.02008 29.0219 7.52885 29.0695 7.93359 28.8496L16.7681 24.0504C17.1244 23.8568 17.3421 23.4982 17.3374 23.1112C17.3206 21.731 17.1422 18.2719 15.8962 14.5471C14.666 10.8694 12.7551 10.64 11.918 10.7381Z" fill="#FF5252"/>
<path d="M13.0788 14.5246C12.7559 14.6937 12.3429 14.5934 12.1565 14.3006L8.18945 8.07031C9.40278 8.41476 10.4449 9.17559 11.0947 10.1962C11.1097 10.2198 11.1269 10.2417 11.1448 10.263L13.3258 13.6883C13.5124 13.9812 13.4017 14.3556 13.0788 14.5246Z" fill="#EA3D3D"/>
<path d="M10.0781 26.4579L4.19329 18.6458C2.13467 15.913 1.71546 12.3983 2.78417 9.37793C1.23828 12.0511 0.349609 15.1741 0.349609 18.5114C0.349609 20.4419 0.647843 22.3003 1.19752 24.042L6.35952 28.7212C6.69315 29.0236 7.17698 29.0732 7.56188 28.8443L10.8037 26.9166C10.5222 26.8603 10.2623 26.7024 10.0781 26.4579Z" fill="#EA3D3D"/>
<path d="M17.6424 24.3054C17.349 23.7817 16.699 23.6023 16.1906 23.9047L6.10968 29.9007C5.60135 30.2031 5.42722 30.8727 5.72069 31.3964L7.38315 34.3628C8.96735 35.4519 10.7259 36.2924 12.6068 36.8307L20.7276 32.0004C21.236 31.6981 21.4101 31.0284 21.1166 30.5048L17.6424 24.3054Z" fill="#8FB1DB"/>
<path d="M17.7731 24.3057C17.4904 23.7818 16.8643 23.6023 16.3746 23.9048L8.70148 28.6454C8.21182 28.9479 8.04409 29.6179 8.32678 30.1418L11.6734 36.3447C11.6898 36.375 11.7076 36.4039 11.7262 36.4319C12.1106 36.5789 12.5011 36.7122 12.8973 36.8307C12.9568 36.8084 13.0153 36.7806 13.0719 36.7456L20.745 32.005C21.2346 31.7025 21.4024 31.0325 21.1197 30.5085L17.7731 24.3057Z" fill="#CEDDF7"/>
<path d="M14.1395 35.479L10.385 28.9831C10.1385 28.5566 10.1984 28.0385 10.4947 27.6797L8.73466 28.6948C8.21327 28.9955 8.03467 29.6614 8.33568 30.1823L11.8992 36.3476C11.9166 36.3778 11.9355 36.4065 11.9554 36.4344C12.3647 36.5804 12.7805 36.7129 13.2024 36.8307C13.2657 36.8086 13.328 36.7809 13.3882 36.7461L14.7232 35.9762C14.4857 35.8855 14.2766 35.7161 14.1395 35.479Z" fill="#AAC5EE"/>
<path d="M10.9782 29.8387L18.8723 25.0654L21.2587 29.3945L13.3647 34.1677C13.1987 34.268 12.9865 34.2085 12.8906 34.0347L10.8512 30.3352C10.7554 30.1613 10.8123 29.9391 10.9782 29.8387Z" fill="#FFB229"/>
<path d="M10.9571 30.0765L12.6295 28.9873L14.725 33.0812L13.0525 34.1704C12.9067 34.2652 12.7204 34.209 12.6363 34.0446L10.8455 30.546C10.7614 30.3816 10.8114 30.1714 10.9571 30.0765Z" fill="#FBCC68"/>
</svg>
