<?xml version="1.0" encoding="UTF-8"?>
<svg width="171px" height="29px" viewBox="0 0 171 29" version="1.1" xmlns="http://www.w3.org/2000/svg" xmlns:xlink="http://www.w3.org/1999/xlink">
    <!-- Generator: Sketch 49.3 (51167) - http://www.bohemiancoding.com/sketch -->
    <title>logo-lloyds-white</title>
    <desc>Created with Sketch.</desc>
    <defs></defs>
    <g id="Home" stroke="none" stroke-width="1" fill="none" fill-rule="evenodd">
        <g id="Home---Extra-large-≥1200px" transform="translate(-492.000000, -1965.000000)">
            <g id="logo-lloyds-white" transform="translate(492.000000, 1965.000000)">
                <g>
                    <g id="Group" transform="translate(0.000000, 8.000000)" fill="#FFFFFF" fill-rule="nonzero">
                        <path d="M8.8,8.9 C8.2,10.8 7,11.6 5.1,11.6 C1.9,11.6 0.8,8.9 0.8,6.4 C0.8,2.5 3,1.2 5.1,1.2 C7.7,1.2 8.4,3 8.6,3.7 L7.3,4 C7.1,3.2 6.4,2.3 5,2.3 C2.7,2.3 2,4.6 2,6.5 C2,8 2.4,10.7 5,10.7 C6.4,10.7 7.1,9.8 7.4,8.7 L8.8,8.9 Z" id="Shape"></path>
                        <path d="M9.8,7.3 C9.8,5.2 10.8,3 13.3,3 C16.2,3 16.8,5.6 16.8,7.3 C16.8,9.4 15.8,11.6 13.3,11.6 C10.4,11.6 9.8,8.9 9.8,7.3 Z M11.1,7.3 C11.1,8.9 11.5,10.6 13.3,10.6 C15.1,10.6 15.5,8.9 15.5,7.3 C15.5,5.7 15.1,4 13.3,4 C11.6,3.9 11.1,5.7 11.1,7.3 Z" id="Shape"></path>
                        <path d="M18.7,3.1 L20.1,7.8 C20.3,8.5 20.5,9 20.8,10.1 L20.9,10.1 C21.2,9 21.3,8.5 21.6,7.8 L23.1,3.1 L24.3,3.1 L21.6,11.4 L20.1,11.4 L17.4,3.1 L18.7,3.1 Z" id="Shape"></path>
                        <path d="M26.2,7.6 C26.3,9.8 27.3,10.6 28.4,10.6 C29.7,10.6 30.3,9.6 30.4,9.1 L31.5,9.5 C31,10.8 29.9,11.6 28.4,11.6 C25.5,11.6 24.9,9 24.9,7.3 C24.9,5.6 25.4,3 28.4,3 C30.8,3 31.6,5.1 31.6,7 L31.6,7.6 L26.2,7.6 Z M30.3,6.7 C30.3,5.2 29.6,4 28.3,4 C27,4 26.3,5 26.1,6.7 L30.3,6.7 Z" id="Shape"></path>
                        <path d="M33.1,3.1 L34.3,3.1 L34.3,4.6 C35,3.6 36,3 37,3 L37,4.2 C36.4,4.2 35.3,4.2 34.2,5.6 L34.2,11.3 L33,11.3 L33,3.1 L33.1,3.1 Z" id="Shape"></path>
                        <path d="M38.3,0.5 L39.5,0.5 L39.5,4.4 C40.2,3.8 41,2.9 42.3,2.9 C43.6,2.9 44.4,3.7 44.3,5.2 L44.3,11.3 L43.1,11.3 L43.1,5.6 C43.1,4.8 42.9,3.9 41.9,3.9 C40.8,3.9 40,4.7 39.5,5.3 L39.5,11.2 L38.3,11.2 L38.3,0.5 Z" id="Shape"></path>
                        <path d="M45.9,7.3 C45.9,5.2 46.9,3 49.4,3 C52.3,3 52.9,5.6 52.9,7.3 C52.9,9.4 51.9,11.6 49.4,11.6 C46.4,11.6 45.9,8.9 45.9,7.3 Z M47.2,7.3 C47.2,8.9 47.6,10.6 49.4,10.6 C51.2,10.6 51.6,8.9 51.6,7.3 C51.6,5.7 51.2,4 49.4,4 C47.6,3.9 47.2,5.7 47.2,7.3 Z" id="Shape"></path>
                        <polygon id="Shape" points="54.4 0.5 55.6 0.5 55.6 11.4 54.4 11.4"></polygon>
                        <path d="M63.8,11.4 L62.6,11.4 L62.6,10.3 C62.3,10.7 61.6,11.5 60.3,11.5 C58.4,11.5 57.3,9.9 57.3,7.2 C57.3,3.9 58.9,2.9 60.2,2.9 C61,2.9 61.7,3.2 62.6,4.1 L62.6,0.4 L63.8,0.4 L63.8,11.4 Z M62.6,5.2 C62.2,4.6 61.4,4 60.6,4 C58.8,4 58.6,6.1 58.6,7.2 C58.6,8.6 58.9,10.6 60.6,10.6 C61.7,10.6 62.4,9.8 62.6,9.4 L62.6,5.2 Z" id="Shape"></path>
                        <path d="M66.6,7.6 C66.7,9.8 67.7,10.6 68.8,10.6 C70.1,10.6 70.7,9.6 70.8,9.1 L71.9,9.5 C71.4,10.8 70.3,11.6 68.8,11.6 C65.9,11.6 65.3,9 65.3,7.3 C65.3,5.6 65.8,3 68.8,3 C71.2,3 72,5.1 72,7 L72,7.6 L66.6,7.6 Z M70.8,6.7 C70.8,5.2 70.1,4 68.8,4 C67.5,4 66.8,5 66.6,6.7 L70.8,6.7 Z" id="Shape"></path>
                        <path d="M73.6,3.1 L74.8,3.1 L74.8,4.6 C75.5,3.6 76.5,3 77.5,3 L77.5,4.2 C76.9,4.2 75.8,4.2 74.7,5.6 L74.7,11.3 L73.5,11.3 L73.5,3.1 L73.6,3.1 Z" id="Shape"></path>
                        <path d="M82.5,5 C82.9,4 83.5,2.9 85.5,2.9 C88,2.9 88.3,4.6 88.3,6 L88.3,10.4 C88.3,10.6 88.3,10.9 88.4,11.4 L87.1,11.4 L87.1,10 C86.3,11.1 85.5,11.5 84.5,11.5 C82.8,11.5 82.2,10.2 82.2,9.2 C82.2,7.3 83.7,6.4 85.9,6.4 L87.1,6.4 L87.1,5.9 C87.1,5.3 87.1,4 85.5,4 C84.5,4 84,4.6 83.6,5.5 L82.5,5 Z M86.2,7.2 C84.4,7.2 83.4,7.8 83.4,9 C83.4,9.8 83.8,10.5 84.8,10.5 C85.3,10.5 86,10.4 87.1,9.1 L87.1,7.2 L86.2,7.2 Z" id="Shape"></path>
                        <path d="M90.7,1.7 L91.9,1.2 L91.9,3.8 L93.8,3.8 L93.8,4.7 L92,4.7 L92,9.3 C92,10 92.1,10.6 93,10.6 C93.4,10.6 93.6,10.5 94,10.4 L94,11.4 C93.5,11.6 93,11.6 92.8,11.6 C91,11.6 90.7,10.4 90.7,9.5 L90.7,4.8 L89.5,4.8 L89.5,3.9 L90.7,3.9 L90.7,1.7 Z" id="Shape"></path>
                    </g>
                    <rect id="Rectangle-path" fill="#FFFFFF" fill-rule="nonzero" x="99.5" y="0.2" width="70.9" height="28.4"></rect>
                    <g id="Group" transform="translate(108.000000, 9.000000)" fill="#000000" fill-rule="nonzero">
                        <path d="M47.3,0.5 C47.4,1.3 46.7,2.5 46.3,2.7 L46,2.4 C46.4,1.8 46.3,0.5 45.9,0.3 L45.9,0.2 C46.2,0.2 46.8,0.3 47,0.4 C47.2,0.4 47.2,0.5 47.3,0.5 Z" id="Shape"></path>
                        <path d="M53.4,7.6 C53.4,9.2 52.3,10.3 50.3,10.3 C49.5,10.3 48.5,10.1 48,9.9 C48,9.9 48,9.8 48,9.6 C48,8.9 48.1,7.8 48.1,7.6 L48.5,7.6 C48.5,7.8 48.6,8.1 48.7,8.4 C49,9.3 49.7,9.6 50.5,9.6 C51.4,9.6 52.1,9.1 52.1,8.2 C52.1,7.5 51.6,7.1 50.8,6.4 L50.3,6 C49.2,5.1 48.3,4.3 48.3,3 C48.3,1.6 49.4,0.6 51.2,0.6 C52,0.6 52.7,0.7 53,0.8 C53.1,0.8 53.2,0.8 53.2,0.9 C53.2,1.1 53.1,1.8 53.1,2.8 L52.7,2.8 C52.4,1.9 52.3,1.2 51,1.2 C50,1.2 49.6,1.9 49.6,2.5 C49.6,3.1 50.1,3.6 51,4.3 L51.5,4.7 C52.7,5.9 53.4,6.4 53.4,7.6 Z" id="Shape"></path>
                        <path d="M35.1,1.1 C34.6,1.1 34.1,1.3 33.6,1.8 C33.2,2.3 31.7,5.1 31.4,5.9 C31.3,6.2 31.2,6.2 31.2,6.8 L31.2,8 C31.2,8.2 31.2,8.6 31.2,9.1 C31.2,9.5 31.3,9.7 31.7,9.8 C31.9,9.8 32.3,9.8 32.4,9.8 L32.4,10.2 L28.3,10.2 L28.3,9.8 C28.5,9.8 28.9,9.8 29,9.8 C29.1,9.8 29.4,9.7 29.4,9.1 C29.4,8.6 29.4,8.2 29.4,8 L29.4,6.8 C29.4,6.4 29.4,6.4 29.1,5.9 C28.9,5.6 27.5,2.9 27.1,2.2 C26.6,1.5 26.3,1.2 25.5,1.2 L25.5,0.8 L28.1,0.8 C28.1,0.8 28.1,1 28.5,1.7 C28.7,2.1 30.2,5 30.4,5.4 C30.4,5.4 32,2.3 32.8,0.8 L34.8,0.8 L34.8,1.1 L35.1,1.1 Z" id="Shape"></path>
                        <path d="M14.8,8.1 C14.8,8.1 14.5,9.5 14.4,9.9 C14.3,10.2 14.3,10.2 14.3,10.2 L7.8,10.2 L7.8,9.8 C8,9.8 8.4,9.8 8.5,9.7 C8.7,9.7 8.8,9.5 8.9,9.1 C9,8.7 9,7.7 9,6.6 L9,4.2 C9,2.4 9,2.1 9,1.7 C9,1.3 8.9,1.1 8.5,1 C8.4,1 8.1,1 7.9,1 L7.9,0.6 L10.6,0.6 L10.6,1.7 C10.6,1.7 10.6,2.3 10.6,4.2 L10.6,6.6 C10.6,8.3 10.6,9 10.8,9.2 C11,9.4 11.5,9.4 12.4,9.4 C13.2,9.4 13.5,9.4 13.8,9.1 C14,8.9 14.2,8.6 14.3,8.1 L14.8,8.1 Z" id="Shape"></path>
                        <path d="M6.9,8.1 C6.9,8.1 6.6,9.5 6.5,9.9 C6.4,10.2 6.4,10.2 6.4,10.2 L0,10.2 L0,9.8 C0.2,9.8 0.6,9.8 0.7,9.7 C0.9,9.7 1,9.5 1.1,9.1 C1.2,8.7 1.2,7.7 1.2,6.6 L1.2,4.2 C1.2,2.4 1.2,2.1 1.2,1.7 C1.2,1.3 1.1,1.1 0.7,1 C0.6,1 0.3,1 0.1,1 L0.1,0.6 L2.8,0.6 L2.8,1.7 C2.8,1.7 2.8,2.3 2.8,4.2 L2.8,6.6 C2.8,8.3 2.8,9 3,9.2 C3.2,9.4 3.7,9.4 4.6,9.4 C5.4,9.4 5.7,9.4 6,9.1 C6.2,8.9 6.4,8.6 6.5,8.1 L6.9,8.1 Z" id="Shape"></path>
                        <path d="M45.5,5.2 C45.5,6.9 44.9,8.1 44.2,8.8 C43.6,9.4 42.5,10.1 40.3,10.1 C38.9,10.1 35.6,10.1 35.6,10.1 L35.6,9.7 C36.4,9.7 36.7,9.7 36.8,9 C36.9,8.5 36.8,7.1 36.8,6.5 L36.8,4.2 C36.8,2.4 36.8,2.1 36.8,1.7 C36.8,1.3 36.7,1.1 36.3,1 C36.2,1 35.9,1 35.7,1 L35.7,0.6 L39.5,0.6 C41,0.6 43,0.6 44.4,2 C44.9,2.7 45.5,3.7 45.5,5.2 Z M43.8,5.6 C43.8,4 43.2,3 42.7,2.6 C41.6,1.5 40.3,1.4 39.3,1.4 C39.1,1.4 38.6,1.4 38.5,1.5 C38.4,1.6 38.4,1.6 38.4,1.7 C38.4,2.1 38.4,3.1 38.4,4.1 L38.4,5.9 C38.4,7.2 38.4,8.1 38.4,8.3 C38.4,8.6 38.4,9.1 38.5,9.2 C38.7,9.4 39.1,9.7 40,9.7 C41.2,9.7 42,9.5 42.7,8.8 C43.5,8.1 43.8,6.8 43.8,5.6 Z" id="Shape"></path>
                        <path d="M25.4,5.2 C25.4,8 23.6,10.3 20.5,10.3 C17.1,10.3 15.7,7.7 15.7,5.4 C15.7,3.1 17.1,0.5 20.6,0.5 C23.6,0.5 25.4,2.4 25.4,5.2 Z M23.6,5.7 C23.6,3 22.2,1.3 20.3,1.3 C18.9,1.3 17.5,2.4 17.5,5.1 C17.5,7.4 18.7,9.6 20.8,9.6 C22.5,9.6 23.6,8.2 23.6,5.7 Z" id="Shape"></path>
                    </g>
                </g>
            </g>
        </g>
    </g>
</svg>