<?xml version="1.0" encoding="UTF-8"?>
<svg width="173px" height="27px" viewBox="0 0 173 27" version="1.1" xmlns="http://www.w3.org/2000/svg" xmlns:xlink="http://www.w3.org/1999/xlink">
    <!-- Generator: Sketch 50.2 (55047) - http://www.bohemiancoding.com/sketch -->
    <title>logo-powered-by-agile</title>
    <desc>Created with Sketch.</desc>
    <defs></defs>
    <g id="Home" stroke="none" stroke-width="1" fill="none" fill-rule="evenodd">
        <g id="Home---Extra-large-≥1200px" transform="translate(-964.000000, -969.000000)" fill="#333333">
            <g id="logo-powered-by-agile" transform="translate(964.000000, 969.000000)">
                <path d="M99.3654,25.2713 L98.8504,24.0163 C98.5574,23.3043 97.8704,22.8443 97.1004,22.8443 L93.1814,22.8443 L98.8134,18.6743 L107.7054,25.7453 L100.0734,25.7453 C99.7614,25.7453 99.4834,25.5593 99.3654,25.2713 Z M89.0354,25.7453 L81.4054,25.7453 L90.0984,15.7873 L90.2144,24.1233 L89.7434,25.2713 C89.6244,25.5593 89.3474,25.7453 89.0354,25.7453 Z M91.3994,1.1263 L97.6694,1.1263 C98.6494,1.1263 99.5354,1.7433 99.8764,2.6623 L100.9854,5.6573 L89.4804,2.1223 C89.9144,1.5103 90.6274,1.1263 91.3994,1.1263 Z M101.9424,8.2403 L107.9714,24.5183 L99.4624,17.7523 L101.9424,8.2403 Z M91.8044,14.2123 L100.7754,8.2533 L98.4484,17.1793 L91.8044,14.2123 Z M91.3234,22.8193 L91.2164,15.1833 L97.7154,18.0853 L91.3234,22.8193 Z M89.3974,3.2753 L100.9094,6.8123 L91.0554,13.3583 L89.3974,3.2753 Z M88.4744,4.6023 L90.0424,14.1393 L81.1824,24.2883 L88.4744,4.6023 Z M109.7634,26.1133 L100.9324,2.2713 C100.4294,0.9123 99.1174,0.0003 97.6694,0.0003 L91.3994,0.0003 C89.9514,0.0003 88.6394,0.9123 88.1364,2.2713 L79.3054,26.1133 C79.2414,26.2863 79.2664,26.4793 79.3714,26.6303 C79.4774,26.7813 79.6494,26.8713 79.8334,26.8713 L89.0354,26.8713 C89.8054,26.8713 90.4924,26.4113 90.7844,25.6993 L91.3004,24.4443 C91.4184,24.1563 91.6964,23.9703 92.0074,23.9703 L97.1004,23.9703 C97.4124,23.9703 97.6904,24.1563 97.8084,24.4443 L98.3234,25.6993 C98.6164,26.4113 99.3034,26.8713 100.0734,26.8713 L109.2354,26.8713 C109.4194,26.8713 109.5924,26.7813 109.6974,26.6303 C109.8024,26.4793 109.8274,26.2863 109.7634,26.1133 Z" id="Fill-1"></path>
                <path d="M118.7154,14.5471 L122.9204,14.5471 L120.8174,9.0081 L118.7154,14.5471 Z M123.4464,16.2251 L118.2104,16.2251 L117.0574,19.2171 C116.7954,19.9451 116.3504,20.1671 115.9054,20.1671 C115.2994,20.1671 114.7124,19.7221 114.7734,19.5401 L119.4224,7.5321 C119.5844,7.1071 119.9084,6.8651 120.8584,6.8651 C121.8284,6.8651 122.1314,7.1071 122.2934,7.5321 L126.9834,19.5401 C127.0444,19.7021 126.4584,20.1671 125.8314,20.1671 C125.3664,20.1671 124.8814,19.9451 124.5984,19.1971 L123.4464,16.2251 Z" id="Fill-3"></path>
                <path d="M138.26,18.4691 L138.26,18.2261 C137.452,19.5201 135.935,20.3091 133.913,20.3091 C130.133,20.3091 127.728,17.4581 127.728,13.5561 C127.728,9.5541 130.477,6.7231 134.439,6.7231 C137.613,6.7231 139.392,8.4221 139.392,9.4321 C139.392,10.3831 138.321,10.5851 138.26,10.5041 C137.452,9.2101 135.935,8.5231 134.48,8.5231 C131.771,8.5231 129.87,10.5851 129.87,13.5771 C129.87,16.5081 131.548,18.6311 134.318,18.6311 C136.441,18.6311 137.977,17.4381 138.24,15.6991 L138.24,14.8701 L135.167,14.8701 C134.459,14.8701 134.116,14.6481 134.116,14.0821 L134.116,13.9811 C134.116,13.3951 134.459,13.1721 135.167,13.1721 L138.968,13.1721 C139.716,13.1721 140.079,13.6371 140.079,14.3651 L140.079,19.9451 C140.079,20.0051 139.776,20.1471 139.392,20.1471 C138.786,20.1471 138.26,19.8441 138.26,18.4691" id="Fill-5"></path>
                <path d="M142.8073,19.1968 L142.8073,7.8558 C142.8073,7.2288 143.1113,6.9058 143.6973,6.9058 L143.9803,6.9058 C144.5863,6.9058 144.8893,7.2288 144.8893,7.8558 L144.8893,19.1968 C144.8893,19.8238 144.5863,20.1468 143.9803,20.1468 L143.6973,20.1468 C143.1113,20.1468 142.8073,19.8238 142.8073,19.1968" id="Fill-7"></path>
                <path d="M147.7435,18.9137 L147.7435,7.8557 C147.7435,7.2087 148.0465,6.9057 148.6125,6.9057 L148.9165,6.9057 C149.5225,6.9057 149.8255,7.2087 149.8255,7.8557 L149.8255,18.1857 L155.5065,18.1857 C156.1335,18.1857 156.4765,18.4887 156.4765,19.0757 L156.4765,19.1567 C156.4765,19.7427 156.1335,20.0657 155.5065,20.0657 L148.8555,20.0657 C148.1885,20.0657 147.7435,19.6217 147.7435,18.9137" id="Fill-9"></path>
                <path d="M158.5339,18.9137 L158.5339,8.1587 C158.5339,7.4517 158.9789,6.9867 159.6459,6.9867 L167.2269,6.9867 C167.8739,6.9867 168.1969,7.3097 168.1969,7.8557 L168.1969,7.9767 C168.1969,8.5427 167.8739,8.8457 167.2269,8.8457 L160.6159,8.8457 L160.6159,12.5057 L165.7309,12.5057 C166.3979,12.5057 166.7009,12.7887 166.7009,13.3337 L166.7009,13.3947 C166.7009,13.9607 166.3779,14.2637 165.7309,14.2637 L160.6159,14.2637 L160.6159,18.2267 L167.3479,18.2267 C167.9949,18.2267 168.2979,18.5097 168.2979,19.0557 L168.2979,19.1567 C168.2979,19.7427 167.9949,20.0657 167.3479,20.0657 L159.6459,20.0657 C158.9789,20.0657 158.5339,19.6217 158.5339,18.9137" id="Fill-11"></path>
                <path d="M172.2157,18.8785 C172.2157,19.5675 171.6577,20.1255 170.9687,20.1255 C170.2807,20.1255 169.7227,19.5675 169.7227,18.8785 C169.7227,18.1895 170.2807,17.6315 170.9687,17.6315 C171.6577,17.6315 172.2157,18.1895 172.2157,18.8785" id="Fill-13"></path>
                <path d="M1.0342,14.7596 L3.0702,14.7596 C4.7872,14.7596 5.6542,14.0296 5.6542,12.6766 C5.6542,11.3096 4.7872,10.5946 3.1162,10.5946 L1.0342,10.5946 L1.0342,14.7596 Z M0.0002,19.0906 L0.0002,10.2446 C0.0002,9.9266 0.2592,9.6676 0.5782,9.6676 L3.1002,9.6676 C5.3952,9.6676 6.7182,10.7466 6.7182,12.6466 C6.7182,14.6076 5.4412,15.6706 2.9792,15.6706 L1.0342,15.6706 L1.0342,19.0906 C1.0342,19.3486 0.8822,19.5616 0.5782,19.5616 L0.4412,19.5616 C0.1522,19.5616 0.0002,19.4096 0.0002,19.0906 Z" id="Fill-15"></path>
                <path d="M14.2227,15.8992 C14.2227,14.2122 13.0677,12.9512 11.5017,12.9512 C9.9367,12.9512 8.7667,14.1812 8.7667,15.8692 C8.7667,17.5552 9.9367,18.8172 11.5017,18.8172 C13.0517,18.8172 14.2227,17.5862 14.2227,15.8992 M7.7637,15.8692 C7.7637,13.6802 9.3287,12.0842 11.5017,12.0842 C13.6607,12.0842 15.2257,13.6952 15.2257,15.8992 C15.2257,18.0872 13.6607,19.6832 11.5017,19.6832 C9.3287,19.6832 7.7637,18.0722 7.7637,15.8692" id="Fill-17"></path>
                <path d="M17.8818,19.2117 L16.1348,12.4947 C16.1188,12.4337 16.3928,12.2057 16.7118,12.2057 C16.9398,12.2057 17.1978,12.3727 17.3048,12.9047 L18.6268,18.5887 L20.1768,13.7107 C20.2678,13.4217 20.4198,13.3007 20.9218,13.3007 C21.4228,13.3007 21.5748,13.4217 21.6658,13.7107 L23.2008,18.5887 L24.5078,12.9047 C24.5998,12.3727 24.8728,12.2057 25.1008,12.2057 C25.4048,12.2057 25.6628,12.4487 25.6488,12.4947 L23.9158,19.2117 C23.8548,19.4707 23.7478,19.5917 23.1858,19.5917 C22.6848,19.5917 22.6088,19.4707 22.5178,19.2117 L20.9218,14.2577 L19.2798,19.2117 C19.1898,19.4707 19.1128,19.5917 18.6108,19.5917 C18.0488,19.5917 17.9428,19.4707 17.8818,19.2117" id="Fill-19"></path>
                <path d="M27.5586,15.3065 L32.5136,15.3065 C32.4216,13.8775 31.5406,12.9515 30.1886,12.9515 C28.8206,12.9515 27.7716,13.9235 27.5586,15.3065 M26.5406,15.9135 C26.5406,13.7105 28.0906,12.0835 30.1886,12.0835 C32.2246,12.0835 33.5626,13.5285 33.5626,15.7325 L33.5626,15.8235 C33.5626,16.0965 33.4556,16.1575 33.1516,16.1575 L27.5286,16.1575 C27.6046,17.7075 28.7296,18.8015 30.2796,18.8015 C31.6926,18.8015 32.3306,18.1945 32.7566,17.5095 C32.7876,17.4645 33.3336,17.6015 33.3336,18.0725 C33.3336,18.5745 32.2406,19.6835 30.2796,19.6835 C28.0766,19.6835 26.5406,18.1325 26.5406,15.9135" id="Fill-21"></path>
                <path d="M36.0674,13.5887 C36.3714,12.6017 37.0094,12.0837 37.9824,12.0837 C38.6504,12.0837 39.0304,12.3587 39.0304,12.8287 C39.0304,13.1937 38.7874,13.3757 38.7564,13.3457 C38.5444,13.1627 38.2864,13.0417 37.8764,13.0417 C36.5844,13.0417 36.0824,14.3947 36.0824,16.2487 L36.0824,19.0907 C36.0824,19.4547 35.9004,19.5617 35.6414,19.5617 L35.5354,19.5617 C35.2764,19.5617 35.0944,19.4547 35.0944,19.0907 L35.0944,12.3127 C35.0944,12.2817 35.2464,12.2057 35.4284,12.2057 C35.7624,12.2057 36.0674,12.3727 36.0674,13.1627 L36.0674,13.5887 Z" id="Fill-23"></path>
                <path d="M40.7607,15.3065 L45.7157,15.3065 C45.6237,13.8775 44.7427,12.9515 43.3907,12.9515 C42.0227,12.9515 40.9737,13.9235 40.7607,15.3065 M39.7427,15.9135 C39.7427,13.7105 41.2927,12.0835 43.3907,12.0835 C45.4267,12.0835 46.7647,13.5285 46.7647,15.7325 L46.7647,15.8235 C46.7647,16.0965 46.6577,16.1575 46.3537,16.1575 L40.7307,16.1575 C40.8067,17.7075 41.9317,18.8015 43.4817,18.8015 C44.8947,18.8015 45.5327,18.1945 45.9587,17.5095 C45.9897,17.4645 46.5357,17.6015 46.5357,18.0725 C46.5357,18.5745 45.4427,19.6835 43.4817,19.6835 C41.2777,19.6835 39.7427,18.1325 39.7427,15.9135" id="Fill-25"></path>
                <path d="M53.9346,16.492 L53.9346,14.653 C53.4786,13.604 52.6436,12.951 51.3666,12.951 C49.8316,12.951 48.8136,14.136 48.8136,15.884 C48.8136,17.586 49.8766,18.817 51.3356,18.817 C52.6586,18.817 53.8736,17.829 53.9346,16.492 M47.8106,15.899 C47.8106,13.619 49.2846,12.084 51.2906,12.084 C52.5676,12.084 53.4946,12.692 53.9196,13.361 L53.9196,9.258 C53.9196,9.227 54.0716,9.151 54.2536,9.151 C54.5886,9.151 54.9076,9.318 54.9076,10.108 L54.9076,19.091 C54.9076,19.455 54.7256,19.561 54.4666,19.561 L54.3606,19.561 C54.1026,19.561 53.9346,19.455 53.9346,19.091 L53.9346,18.301 C53.2816,19.181 52.4306,19.683 51.2296,19.683 C49.3146,19.683 47.8106,18.194 47.8106,15.899" id="Fill-27"></path>
                <path d="M65.6172,15.8836 C65.6172,14.1816 64.5542,12.9506 63.0952,12.9506 C61.8332,12.9506 60.9522,13.6186 60.4962,14.6676 L60.4962,16.3696 C60.4962,17.7526 61.6962,18.8176 63.0642,18.8176 C64.5992,18.8176 65.6172,17.6316 65.6172,15.8836 M60.4962,18.3916 L60.4962,19.0906 C60.4962,19.4546 60.3282,19.5616 60.0702,19.5616 L59.9642,19.5616 C59.7052,19.5616 59.5232,19.4546 59.5232,19.0906 L59.5232,9.2576 C59.5232,9.2276 59.6752,9.1516 59.8572,9.1516 C60.1912,9.1516 60.5112,9.3186 60.5112,10.1086 L60.5112,13.4516 C61.1642,12.5856 62.0002,12.0836 63.2012,12.0836 C65.1162,12.0836 66.6202,13.5736 66.6202,15.8686 C66.6202,18.1486 65.1462,19.6836 63.1402,19.6836 C61.8332,19.6836 60.9062,19.0746 60.4962,18.3916" id="Fill-29"></path>
                <path d="M69.4141,22.2362 L70.6301,19.1362 C70.2951,19.1362 70.1581,19.0602 70.0211,18.7562 L67.3771,12.4952 C67.3621,12.4332 67.5141,12.2062 67.8631,12.2062 C68.2131,12.2062 68.3951,12.3582 68.6081,12.8892 L70.9031,18.5582 L72.8941,12.9202 C73.0761,12.3882 73.3051,12.2062 73.6241,12.2062 C73.8971,12.2062 74.1411,12.4192 74.1251,12.4652 L70.6301,21.8412 C70.4321,22.3732 70.1891,22.4952 69.9311,22.4952 C69.6571,22.4952 69.3981,22.2822 69.4141,22.2362" id="Fill-31"></path>
            </g>
        </g>
    </g>
</svg>