<svg width="37" height="37" viewBox="0 0 37 37" fill="none" xmlns="http://www.w3.org/2000/svg">
<path d="M36.931 18.5286C36.931 28.6367 28.7403 36.8307 18.6364 36.8307C8.53243 36.8307 0.341797 28.6367 0.341797 18.5286C0.341797 8.42054 8.53243 0.226562 18.6364 0.226562C28.7403 0.226562 36.931 8.42054 36.931 18.5286Z" fill="#B5E237"/>
<path d="M36.931 18.4812C36.931 20.3485 36.6529 22.1505 36.1357 23.8479C35.7761 25.0283 35.3016 26.1581 34.7243 27.2246C34.1347 28.3141 33.4379 29.3363 32.6482 30.2788C32.6066 30.3284 32.5653 30.3776 32.5232 30.4264C29.1686 34.3474 24.1913 36.831 18.6364 36.831C13.0815 36.831 8.10421 34.3474 4.75047 30.4264C4.70831 30.3771 4.66616 30.3275 4.6254 30.278C3.83484 29.3363 3.13808 28.3141 2.54934 27.2246C2.31429 26.7923 2.09683 26.3493 1.89752 25.8963C0.897033 23.6292 0.341797 21.1204 0.341797 18.4812C0.341797 15.1683 1.21722 12.0609 2.74866 9.37793C5.90169 14.9023 11.8359 18.6245 18.6364 18.6245C25.4368 18.6245 31.3719 14.9023 34.5241 9.37793C36.0556 12.0609 36.931 15.1683 36.931 18.4812Z" fill="#95D600"/>
<path d="M34.5754 27.6797C34.068 28.5807 33.4817 29.4337 32.8235 30.2301C32.2256 30.9546 31.5679 31.6317 30.8593 32.2553C27.6323 35.0966 23.3329 36.8307 18.6129 36.8307C13.8928 36.8307 9.59348 35.0966 6.36649 32.2553C5.65787 31.6317 5.00018 30.9546 4.40229 30.2301C3.74405 29.4337 3.15777 28.5807 2.65039 27.6797H34.5754Z" fill="#323B5A"/>
<path d="M17.3303 22.2527L16.6647 22.4505L14.7168 12.1899L15.049 12.0908L15.3818 11.9922L17.3303 22.2527Z" fill="#9E69E2"/>
<path d="M14.7168 12.092L15.0976 11.9922L17.3303 22.3507L16.9498 22.4505L14.7168 12.092Z" fill="#8E4FD2"/>
<path d="M18.6352 12.5355C18.6352 12.9576 18.3539 13.2991 18.0069 13.2991H14.4848C14.1876 13.2991 13.9188 13.1527 13.7237 12.9162C13.5757 12.7366 13.4705 12.5048 13.4288 12.2452C13.4152 12.1633 13.4082 12.0792 13.4082 11.9923C13.4082 11.1376 14.0732 10.5131 14.7544 10.7268L18.1637 11.7969C18.3028 11.8405 18.4203 11.9382 18.5037 12.0685C18.5386 12.1222 18.5667 12.182 18.5878 12.2452C18.6188 12.335 18.6352 12.4337 18.6352 12.5355Z" fill="#535E89"/>
<path d="M29.0901 22.4508C29.0901 23.1728 28.5049 23.7581 27.7833 23.7581C27.0617 23.7581 26.4766 23.1728 26.4766 22.4508C26.4766 21.7289 27.0617 21.1436 27.7833 21.1436C28.5049 21.1436 29.0901 21.7289 29.0901 22.4508Z" fill="white"/>
<path d="M27.7833 23.1038C27.7833 23.4648 27.4908 23.7575 27.1299 23.7575C26.7691 23.7575 26.4766 23.4648 26.4766 23.1038C26.4766 22.7428 26.7691 22.4502 27.1299 22.4502C27.4908 22.4502 27.7833 22.7428 27.7833 23.1038Z" fill="#313B5A"/>
<path d="M27.1302 17.2217C24.6082 17.2217 22.5566 19.5675 22.5566 22.4505C22.5566 25.3342 24.6082 27.68 27.1302 27.68C29.6524 27.68 31.7039 25.3342 31.7039 22.4505C31.7039 19.5675 29.6524 17.2217 27.1302 17.2217ZM27.1302 26.7412C25.0612 26.7412 23.3785 24.8168 23.3785 22.4505C23.3785 20.0849 25.0615 18.1605 27.1302 18.1605C29.1991 18.1605 30.8826 20.0849 30.8826 22.4505C30.8826 24.8168 29.1991 26.7412 27.1302 26.7412Z" fill="#535E89"/>
<path d="M27.1299 18.5283C24.6084 18.5283 22.5566 20.581 22.5566 23.1034C22.5566 25.6267 24.6084 27.6793 27.1299 27.6793C29.6521 27.6793 31.7039 25.6267 31.7039 23.1034C31.7039 20.581 29.6521 18.5283 27.1299 18.5283ZM27.1299 27.1928C24.8761 27.1928 23.043 25.3587 23.043 23.1034C23.043 20.8487 24.8764 19.0146 27.1299 19.0146C29.3837 19.0146 31.2176 20.8487 31.2176 23.1034C31.2176 25.3587 29.3837 27.1928 27.1299 27.1928Z" fill="#323B5A"/>
<path d="M27.6845 14.3949C27.592 14.5277 27.4466 14.6064 27.2911 14.6064H25.6347C25.3635 14.6064 25.1428 14.3696 25.1428 14.077C25.1428 13.7844 25.3635 13.5472 25.6347 13.5472H26.6369L26.1524 11.7438H23.6962L24.0861 13.2583H23.0646L22.5746 11.3553C22.5332 11.1962 22.5645 11.0256 22.6569 10.8934C22.75 10.762 22.8948 10.6846 23.0487 10.6846H26.5225C26.7419 10.6846 26.9345 10.8407 26.9951 11.0671L27.764 13.9297C27.8075 14.0895 27.7778 14.2618 27.6845 14.3949Z" fill="#535E89"/>
<path d="M27.7827 22.0659C27.7713 22.1944 27.6864 22.3174 27.54 22.3899C27.457 22.431 27.3649 22.4508 27.2743 22.4508C27.1029 22.4508 26.936 22.3806 26.8394 22.2531C25.2854 20.1901 24.1106 17.959 23.3485 15.6214L22.5566 13.2998H23.6136L24.332 15.4052C24.9399 17.2709 25.8176 19.063 26.9471 20.7515C27.1894 21.1133 27.4434 21.4698 27.7085 21.8218C27.7656 21.8974 27.789 21.9828 27.7827 22.0659Z" fill="#8E4FD2"/>
<path d="M27.7207 22.1961C27.4995 21.8288 27.2875 21.4564 27.0854 21.0787C26.1429 19.3163 25.4106 17.4454 24.9035 15.4977L24.3041 13.2998H23.8633L24.4941 15.6131C25.0819 17.8698 25.9706 20.0336 27.1358 22.0446C27.2725 22.2801 27.5143 22.432 27.7828 22.4508C27.7878 22.3644 27.7682 22.2753 27.7207 22.1961Z" fill="#8E4FD2"/>
<path d="M25.7666 11.9922H22.5566L23.0432 13.5677H23.5153L23.1549 12.4005H25.4246L25.8724 13.7904H24.9463C24.6957 13.7904 24.4915 13.973 24.4915 14.1985C24.4915 14.4242 24.6957 14.6068 24.9463 14.6068H25.0399C24.9916 14.396 25.1709 14.1985 25.4105 14.1985H26.4769L25.7666 11.9922Z" fill="#313B5A"/>
<path d="M10.7952 22.4508C10.7952 23.1728 10.21 23.7581 9.4884 23.7581C8.76652 23.7581 8.18164 23.1728 8.18164 22.4508C8.18164 21.7287 8.76652 21.1436 9.4884 21.1436C10.21 21.1436 10.7952 21.7287 10.7952 22.4508Z" fill="white"/>
<path d="M9.48847 17.2217C6.60695 17.2217 4.26172 19.5672 4.26172 22.451C4.26172 25.3344 6.60695 27.68 9.48847 27.68C12.3708 27.68 14.7158 25.3344 14.7158 22.451C14.7158 19.5672 12.3708 17.2217 9.48847 17.2217ZM9.48847 26.5307C7.24013 26.5307 5.41073 24.7004 5.41073 22.451C5.41073 20.2013 7.24013 18.371 9.48847 18.371C11.7376 18.371 13.5668 20.2013 13.5668 22.451C13.5668 24.7004 11.7374 26.5307 9.48847 26.5307Z" fill="#535E89"/>
<path d="M9.48829 17.2217C6.60597 17.2217 4.26172 19.5678 4.26172 22.4513C4.26172 25.3348 6.60597 27.68 9.48829 27.68C12.3706 27.68 14.7158 25.3348 14.7158 22.4513C14.7158 19.5678 12.3703 17.2217 9.48829 17.2217ZM9.48829 26.9696C6.99804 26.9696 4.9718 24.9426 4.9718 22.4513C4.9718 19.9597 6.99804 17.9327 9.48829 17.9327C11.9795 17.9327 14.0054 19.9597 14.0054 22.4513C14.0054 24.9426 11.9792 26.9696 9.48829 26.9696Z" fill="#323B5A"/>
<path d="M25.1528 16.6032L24.6668 14.9184C24.6136 14.7341 24.4424 14.6064 24.2473 14.6064H15.6572C15.5256 14.6064 15.4008 14.6647 15.3175 14.7659L9.58552 21.7512C9.4797 21.88 9.45827 22.0565 9.53098 22.2058C9.60316 22.3551 9.75673 22.4502 9.92442 22.4502H17.7028C17.7988 22.4502 17.8916 22.4189 17.9681 22.3618L24.9984 17.0615C25.1403 16.9544 25.2016 16.7725 25.1528 16.6032ZM10.8377 21.5915L15.8656 15.4651H23.9174L24.2327 16.5567L17.5554 21.5915H10.8377Z" fill="#8E4FD2"/>
<path d="M24.6551 14.6064H15.5588L9.48828 22.4502H17.7249L25.1694 16.4983L24.6551 14.6064ZM17.5689 21.9679H10.4554L15.7794 15.0884H24.3057L24.6395 16.3142L17.5689 21.9679Z" fill="#9E69E2"/>
<path d="M16.897 20.4238V23.2194L9.91987 22.5708V21.7844L16.897 20.4238ZM17.3288 19.8359L9.48828 21.3647V23.029L17.3288 23.7578V19.8359Z" fill="#313B5A"/>
<path d="M18.637 21.7967C18.637 22.8798 18.0519 23.7578 17.3303 23.7578C16.6085 23.7578 16.0234 22.8798 16.0234 21.7967C16.0234 20.7139 16.6085 19.8359 17.3303 19.8359C18.0519 19.8359 18.637 20.7139 18.637 21.7967Z" fill="#313B5A"/>
<path d="M18.6368 21.7971C18.6368 22.158 18.3444 22.4508 17.9836 22.4508C17.6228 22.4508 17.3301 22.158 17.3301 21.7971C17.3301 21.4361 17.6228 21.1436 17.9836 21.1436C18.3444 21.1436 18.6368 21.4361 18.6368 21.7971Z" fill="white"/>
<path d="M18.6352 12.3523C18.6352 12.8759 18.3528 13.2995 18.0044 13.2995H14.4684C14.17 13.2995 13.9001 13.1179 13.7042 12.8245C13.5557 12.6017 13.45 12.3142 13.4082 11.9922H18.5876C18.6188 12.1036 18.6352 12.226 18.6352 12.3523Z" fill="#313B5A"/>
<path d="M10.7952 21.7973C10.7952 22.1582 10.2101 22.4508 9.48864 22.4508C8.7667 22.4508 8.18164 22.1582 8.18164 21.7973C8.18164 21.4362 8.7667 21.1436 9.48864 21.1436C10.2101 21.1436 10.7952 21.4362 10.7952 21.7973Z" fill="#313B5A"/>
<path d="M9.38334 14.6068C9.42573 14.5554 9.44647 14.5301 9.48886 14.4787C9.43775 13.6312 8.81784 12.9616 8.06024 12.9616C7.90181 12.9616 7.74938 12.9914 7.60688 13.0455C7.56209 13.0626 7.51188 13.0431 7.48693 12.9972C7.15984 12.3941 6.5742 11.9922 5.90619 11.9922C5.03104 11.9922 4.29749 12.6816 4.10087 13.6093C4.08915 13.6651 4.04255 13.7014 3.99204 13.6979C3.9722 13.6966 3.95266 13.6962 3.93252 13.6962C3.49269 13.6962 3.1169 14.0053 2.96267 14.4431C2.93501 14.5215 2.98642 14.6068 3.06038 14.6068H9.38334Z" fill="white"/>
<path d="M8.07283 14.6071C8.11934 14.5559 8.1358 14.5374 8.18199 14.4865C8.12346 14.0898 7.76182 13.7844 7.32394 13.7844C7.23978 13.7844 7.15847 13.796 7.08127 13.8171C7.03507 13.8296 6.98572 13.8139 6.95914 13.776C6.75823 13.4891 6.41273 13.2998 6.02041 13.2998C5.50311 13.2998 5.06744 13.6287 4.93677 14.0761C4.92317 14.1222 4.87761 14.1517 4.82699 14.1517C4.82667 14.1517 4.82635 14.1517 4.82604 14.1517C4.59001 14.1517 4.38436 14.2734 4.27583 14.4535C4.23439 14.522 4.28944 14.6068 4.37297 14.6068H8.07283V14.6071Z" fill="#D0F6FF"/>
<path d="M15.9168 6.76334C15.9592 6.73767 15.98 6.725 16.0221 6.69933C15.9713 6.27555 15.351 5.94077 14.5937 5.94077C14.4352 5.94077 14.2828 5.95566 14.1403 5.9827C14.0952 5.99126 14.0453 5.9815 14.0203 5.95857C13.6932 5.65699 13.1076 5.45605 12.4395 5.45605C11.5643 5.45605 10.8308 5.80076 10.6341 6.2646C10.6221 6.29249 10.5758 6.31064 10.5253 6.30892C10.5055 6.30824 10.4856 6.30807 10.4658 6.30807C10.0259 6.30807 9.64981 6.46262 9.49587 6.68153C9.46821 6.72073 9.51962 6.76334 9.59358 6.76334H15.9168Z" fill="white"/>
<path d="M14.606 6.76334C14.6522 6.71215 14.669 6.69369 14.7152 6.64279C14.6567 6.24602 14.2947 5.94063 13.8572 5.94063C13.7727 5.94063 13.6914 5.95224 13.6145 5.97337C13.5683 5.98588 13.5187 5.9701 13.4924 5.9323C13.2912 5.64536 12.946 5.45605 12.5534 5.45605C12.0361 5.45605 11.6008 5.78496 11.4698 6.23233C11.4565 6.27847 11.411 6.30794 11.36 6.30794C11.3597 6.30794 11.3594 6.30794 11.3594 6.30794C11.1234 6.30794 10.9177 6.42968 10.8089 6.60976C10.7678 6.67822 10.8225 6.76305 10.9063 6.76305L14.606 6.76334Z" fill="#D0F6FF"/>
<path d="M27.6786 6.76334C27.7206 6.73767 27.7414 6.725 27.7838 6.69933C27.7327 6.27555 27.1128 5.94077 26.3554 5.94077C26.1967 5.94077 26.0446 5.95566 25.9021 5.9827C25.857 5.99126 25.8071 5.9815 25.7821 5.95857C25.4547 5.65699 24.8694 5.45605 24.201 5.45605C23.3259 5.45605 22.5926 5.80076 22.396 6.2646C22.384 6.29249 22.3374 6.31064 22.2868 6.30892C22.2673 6.30824 22.2475 6.30807 22.2273 6.30807C21.7878 6.30807 21.4117 6.46262 21.2575 6.68153C21.2301 6.72073 21.2815 6.76334 21.3555 6.76334H27.6786Z" fill="white"/>
<path d="M26.3674 6.76334C26.414 6.71215 26.4307 6.69369 26.4769 6.64279C26.4184 6.24602 26.0564 5.94063 25.6189 5.94063C25.5344 5.94063 25.4531 5.95224 25.3762 5.97337C25.3301 5.98588 25.2804 5.9701 25.2541 5.9323C25.0529 5.64536 24.7077 5.45605 24.3151 5.45605C23.7978 5.45605 23.3625 5.78496 23.2315 6.23233C23.2182 6.27847 23.1727 6.30794 23.1218 6.30794C23.1214 6.30794 23.1211 6.30794 23.1208 6.30794C22.8848 6.30794 22.6795 6.42968 22.5706 6.60976C22.5295 6.67822 22.5842 6.76305 22.6678 6.76305L26.3674 6.76334Z" fill="#D0F6FF"/>
<path d="M32.926 15.9144C32.9597 15.863 32.9766 15.8377 33.0102 15.7864C32.9693 14.9388 32.4734 14.2692 31.8676 14.2692C31.7406 14.2692 31.6186 14.299 31.5049 14.3531C31.4688 14.3702 31.4289 14.3507 31.4089 14.3048C31.147 13.7017 30.6787 13.2998 30.144 13.2998C29.4439 13.2998 28.8573 13.9892 28.7 14.9169C28.6904 14.9727 28.6531 15.009 28.6127 15.0055C28.597 15.0042 28.5812 15.0035 28.5651 15.0035C28.2134 15.0035 27.9125 15.3129 27.7892 15.7508C27.7673 15.8288 27.8084 15.9144 27.8676 15.9144H32.926Z" fill="white"/>
<path d="M32.9006 15.9137C32.9472 15.8625 32.9636 15.8441 33.0101 15.7932C32.9513 15.3964 32.5897 15.091 32.1518 15.091C32.0676 15.091 31.9863 15.1026 31.9091 15.1238C31.8633 15.1363 31.8136 15.1205 31.787 15.0827C31.5861 14.7958 31.2409 14.6064 30.8483 14.6064C30.331 14.6064 29.8957 14.9354 29.7647 15.3827C29.7511 15.4289 29.7059 15.4583 29.655 15.4583C29.6546 15.4583 29.6543 15.4583 29.654 15.4583C29.418 15.4583 29.2123 15.5798 29.1038 15.7601C29.0627 15.8286 29.1174 15.9134 29.201 15.9134H32.9006V15.9137Z" fill="#D0F6FF"/>
</svg>
